<svg width="36" height="36" viewBox="0 0 36 36" fill="none" xmlns="http://www.w3.org/2000/svg">
<g id="homework_14686654 1">
<g id="Group">
<g id="Group_2">
<path id="Vector" d="M23.8302 34.9412H2.72375C1.95936 34.9412 1.3374 34.3192 1.3374 33.5548V5.27964C1.3374 4.51525 1.95936 3.89355 2.72375 3.89355H23.8302C24.5946 3.89355 25.2165 4.51525 25.2165 5.27964V33.5548C25.2165 34.3192 24.5946 34.9412 23.8302 34.9412ZM2.72375 4.95238C2.54616 4.95238 2.39623 5.10231 2.39623 5.27964V33.5548C2.39623 33.7384 2.54021 33.8824 2.72375 33.8824H23.8302C24.0137 33.8824 24.1577 33.7384 24.1577 33.5548V5.27964C24.1577 5.10231 24.0078 4.95238 23.8302 4.95238H2.72375Z" fill="white"/>
</g>
<g id="Group_3">
<path id="Vector_2" d="M26.922 32.1062H24.6872C24.3948 32.1062 24.1578 31.8692 24.1578 31.5768V5.27941C24.1578 5.10208 24.0079 4.95215 23.8303 4.95215H4.95861C4.66625 4.95215 4.4292 4.7151 4.4292 4.42274V2.44468C4.4292 1.68029 5.05115 1.05859 5.81554 1.05859H26.922C27.6863 1.05859 28.3083 1.68029 28.3083 2.44468V30.7201C28.3083 31.4845 27.6863 32.1062 26.922 32.1062ZM25.2166 31.0474H26.922C27.0996 31.0474 27.2495 30.8975 27.2495 30.7201V2.44468C27.2495 2.26114 27.1055 2.11742 26.922 2.11742H5.81554C5.63201 2.11742 5.48802 2.26114 5.48802 2.44468V3.89332H23.8303C24.5947 3.89332 25.2166 4.51502 25.2166 5.27941V31.0474Z" fill="white"/>
</g>
<g id="Group_4">
<path id="Vector_3" d="M9.44192 12.5419H5.73682C5.17716 12.5419 4.72168 12.0867 4.72168 11.527V7.82861C4.72168 7.26896 5.17716 6.81348 5.73682 6.81348H9.44192C10.0016 6.81348 10.4571 7.26896 10.4571 7.82861V11.527C10.4571 12.0867 10.0016 12.5419 9.44192 12.5419ZM5.7805 11.4831H9.39824V7.8723H5.7805V11.4831Z" fill="white"/>
</g>
<g id="Group_5">
<path id="Vector_4" d="M9.44192 19.9491H5.73682C5.17716 19.9491 4.72168 19.4936 4.72168 18.934V15.2358C4.72168 14.6762 5.17716 14.2207 5.73682 14.2207H9.44192C10.0016 14.2207 10.4571 14.6762 10.4571 15.2358V18.934C10.4571 19.4936 10.0016 19.9491 9.44192 19.9491ZM5.7805 18.8903H9.39824V15.2795H5.7805V18.8903Z" fill="white"/>
</g>
<g id="Group_6">
<path id="Vector_5" d="M9.44192 27.3554H5.73682C5.17716 27.3554 4.72168 26.8999 4.72168 26.3402V22.6418C4.72168 22.0822 5.17716 21.627 5.73682 21.627H9.44192C10.0016 21.627 10.4571 22.0822 10.4571 22.6418V26.3402C10.4571 26.8999 10.0016 27.3554 9.44192 27.3554ZM5.7805 26.2965H9.39824V22.6858H5.7805V26.2965Z" fill="white"/>
</g>
<g id="Group_7">
<path id="Vector_6" d="M21.3032 8.40843H13.9186C13.6262 8.40843 13.3892 8.17139 13.3892 7.87902C13.3892 7.58666 13.6262 7.34961 13.9186 7.34961H21.3032C21.5956 7.34961 21.8326 7.58666 21.8326 7.87902C21.8326 8.17139 21.5956 8.40843 21.3032 8.40843Z" fill="white"/>
</g>
<g id="Group_8">
<path id="Vector_7" d="M21.3032 15.8147H13.9186C13.6262 15.8147 13.3892 15.5776 13.3892 15.2853C13.3892 14.9929 13.6262 14.7559 13.9186 14.7559H21.3032C21.5956 14.7559 21.8326 14.9929 21.8326 15.2853C21.8326 15.5776 21.5956 15.8147 21.3032 15.8147Z" fill="white"/>
</g>
<g id="Group_9">
<path id="Vector_8" d="M21.3032 19.4123H13.9186C13.6262 19.4123 13.3892 19.1753 13.3892 18.8829C13.3892 18.5906 13.6262 18.3535 13.9186 18.3535H21.3032C21.5956 18.3535 21.8326 18.5906 21.8326 18.8829C21.8326 19.1753 21.5956 19.4123 21.3032 19.4123Z" fill="white"/>
</g>
<g id="Group_10">
<path id="Vector_9" d="M15.923 27.3722C15.7875 27.3722 15.6521 27.3205 15.5487 27.2171L13.5443 25.2127C13.3375 25.0059 13.3375 24.6709 13.5443 24.4641C13.7511 24.2573 14.0861 24.2573 14.2929 24.4641L15.923 26.0942L19.7175 22.2996C19.9243 22.0928 20.2594 22.0928 20.4662 22.2996C20.673 22.5064 20.673 22.8415 20.4662 23.0483L16.2973 27.2171C16.1939 27.3205 16.0584 27.3722 15.923 27.3722Z" fill="white"/>
</g>
<g id="Group_11">
<g id="Group_12">
<path id="Vector_10" d="M32.6123 34.2621C31.4857 34.2621 30.5693 33.3423 30.5693 32.2116V28.756C30.5693 28.4636 30.8064 28.2266 31.0987 28.2266H34.1333C34.4257 28.2266 34.6627 28.4636 34.6627 28.756V32.2116C34.6627 33.3423 33.743 34.2621 32.6123 34.2621ZM31.6282 29.2854V32.2116C31.6282 32.7584 32.0697 33.2032 32.6123 33.2032C33.159 33.2032 33.6039 32.7584 33.6039 32.2116V29.2854H31.6282Z" fill="white"/>
</g>
<g id="Group_13">
<path id="Vector_11" d="M34.1333 29.2856H31.0987C30.8064 29.2856 30.5693 29.0485 30.5693 28.7562V12.9048C30.5693 12.6988 30.6159 12.4799 30.7035 12.271L32.1245 8.90737C32.2072 8.71143 32.3993 8.58424 32.6118 8.58398C32.8242 8.58398 33.0166 8.71091 33.0996 8.90634L34.5278 12.2694C34.6162 12.4799 34.6627 12.6988 34.6627 12.9048V28.7562C34.6627 29.0485 34.4257 29.2856 34.1333 29.2856ZM31.6282 28.2268H33.6039V12.9048C33.6039 12.8407 33.5853 12.7593 33.5524 12.682L32.6136 10.4708L31.6793 12.6825C31.6468 12.7593 31.6282 12.8407 31.6282 12.9048V28.2268Z" fill="white"/>
</g>
</g>
</g>
</g>
</svg>
