<svg width="61" height="57" viewBox="0 0 61 57" fill="none" xmlns="http://www.w3.org/2000/svg">
<g id="05-Book">
<path id="Vector" d="M9.90625 47.8125H57.9062C57.9062 47.8125 55.9062 46.8125 55.9062 42.8125C55.9062 38.8125 57.9062 37.8125 57.9062 37.8125H9.90625C8.84538 37.8125 7.82797 38.2339 7.07782 38.9841C6.32768 39.7342 5.90625 40.7516 5.90625 41.8125V43.8125C5.90625 44.8734 6.32768 45.8908 7.07782 46.6409C7.82797 47.3911 8.84538 47.8125 9.90625 47.8125Z" fill="#E7EAEF"/>
<path id="Vector_2" d="M45.9062 5.8125H9.90625C9.90625 5.8125 11.9062 6.8125 11.9062 10.8125C11.9062 14.8125 9.90625 15.8125 9.90625 15.8125H45.9062C46.9671 15.8125 47.9845 15.3911 48.7347 14.6409C49.4848 13.8908 49.9062 12.8734 49.9062 11.8125V9.8125C49.9062 8.75163 49.4848 7.73422 48.7347 6.98407C47.9845 6.23393 46.9671 5.8125 45.9062 5.8125Z" fill="#E7EAEF"/>
<path id="Vector_3" d="M9.90625 51.8125H58.9062C59.1715 51.8125 59.4258 51.7071 59.6134 51.5196C59.8009 51.3321 59.9062 51.0777 59.9062 50.8125V48.8125C59.9062 48.5473 59.8009 48.2929 59.6134 48.1054C59.4258 47.9179 59.1715 47.8125 58.9062 47.8125H9.90625C8.84538 47.8125 7.82797 47.3911 7.07782 46.6409C6.32768 45.8908 5.90625 44.8734 5.90625 43.8125V41.8125C5.90625 40.7516 6.32768 39.7342 7.07782 38.9841C7.82797 38.2339 8.84538 37.8125 9.90625 37.8125H58.9062C59.1715 37.8125 59.4258 37.7071 59.6134 37.5196C59.8009 37.3321 59.9062 37.0777 59.9062 36.8125V34.8125C59.9062 34.5473 59.8009 34.2929 59.6134 34.1054C59.4258 33.9179 59.1715 33.8125 58.9062 33.8125H9.90625C7.78452 33.8125 5.74969 34.6554 4.2494 36.1556C2.7491 37.6559 1.90625 39.6908 1.90625 41.8125V43.8125C1.90625 45.9342 2.7491 47.9691 4.2494 49.4694C5.74969 50.9696 7.78452 51.8125 9.90625 51.8125Z" fill="#FC6067"/>
<path id="Vector_4" d="M19.9062 55.8125L16.9062 52.8125L13.9062 55.8125V42.8125H19.9062V55.8125Z" fill="#FCB860"/>
<path id="Vector_5" d="M54.9062 19.8125H6.90625C5.80168 19.8125 4.90625 20.7079 4.90625 21.8125V31.8125C4.90625 32.9171 5.80168 33.8125 6.90625 33.8125H54.9062C56.0108 33.8125 56.9062 32.9171 56.9062 31.8125V21.8125C56.9062 20.7079 56.0108 19.8125 54.9062 19.8125Z" fill="#FCB860"/>
<path id="Vector_6" d="M26.9062 19.8125H12.9062V33.8125H26.9062V19.8125Z" fill="#E7EAEF"/>
<path id="Vector_7" d="M45.9062 19.8125H8.90625C8.64103 19.8125 8.38668 19.7071 8.19914 19.5196C8.01161 19.3321 7.90625 19.0777 7.90625 18.8125V16.8125C7.90625 16.5473 8.01161 16.2929 8.19914 16.1054C8.38668 15.9179 8.64103 15.8125 8.90625 15.8125H45.9062C46.9671 15.8125 47.9845 15.3911 48.7347 14.6409C49.4848 13.8908 49.9062 12.8734 49.9062 11.8125V9.8125C49.9062 8.75163 49.4848 7.73422 48.7347 6.98407C47.9845 6.23393 46.9671 5.8125 45.9062 5.8125H8.90625C8.64103 5.8125 8.38668 5.70714 8.19914 5.51961C8.01161 5.33207 7.90625 5.07772 7.90625 4.8125V2.8125C7.90625 2.54728 8.01161 2.29293 8.19914 2.10539C8.38668 1.91786 8.64103 1.8125 8.90625 1.8125H45.9062C48.028 1.8125 50.0628 2.65535 51.5631 4.15565C53.0634 5.65594 53.9062 7.69077 53.9062 9.8125V11.8125C53.9062 13.9342 53.0634 15.9691 51.5631 17.4694C50.0628 18.9696 48.028 19.8125 45.9062 19.8125Z" fill="#68B1FC"/>
<path id="Vector_8" d="M35.9062 23.8125L38.9062 20.8125L41.9062 23.8125V10.8125H35.9062V23.8125Z" fill="#FC6067"/>
<path id="Vector_9" d="M58.2161 38.8125H58.9062C59.4365 38.8119 59.9449 38.601 60.3198 38.226C60.6947 37.8511 60.9056 37.3427 60.9062 36.8125V34.8125C60.9056 34.2823 60.6947 33.7739 60.3198 33.399C59.9449 33.024 59.4365 32.8131 58.9062 32.8125H57.722C57.8405 32.4923 57.9029 32.154 57.9062 31.8125V21.8125C57.9054 21.0171 57.589 20.2546 57.0266 19.6921C56.4642 19.1297 55.7016 18.8134 54.9062 18.8125H51.5507C52.5978 17.9709 53.4429 16.9051 54.0236 15.6937C54.6043 14.4822 54.906 13.1559 54.9062 11.8125V9.8125C54.9036 7.42638 53.9545 5.13875 52.2672 3.45151C50.58 1.76426 48.2924 0.815189 45.9062 0.8125H8.90625C8.376 0.813106 7.86765 1.02401 7.49271 1.39896C7.11776 1.7739 6.90686 2.28225 6.90625 2.8125V4.8125C6.90686 5.34275 7.11776 5.8511 7.49271 6.22604C7.86765 6.60099 8.376 6.81189 8.90625 6.8125H9.59125C9.96472 7.12 10.9062 8.15222 10.9062 10.8125C10.9062 13.492 9.95099 14.5205 9.59644 14.8125H8.90625C8.376 14.8131 7.86765 15.024 7.49271 15.399C7.11776 15.7739 6.90686 16.2823 6.90625 16.8125V18.8125C6.11087 18.8134 5.34831 19.1297 4.78589 19.6921C4.22347 20.2546 3.90712 21.0171 3.90625 21.8125V31.8125C3.90755 32.2782 4.0177 32.7372 4.2279 33.1528C4.43811 33.5684 4.74256 33.9291 5.11694 34.2061C3.82934 35.0147 2.76775 36.1365 2.03138 37.4667C1.29502 38.7969 0.907914 40.2921 0.90625 41.8125V43.8125C0.908939 46.1986 1.85801 48.4862 3.54526 50.1735C5.2325 51.8607 7.52013 52.8098 9.90625 52.8125H12.9062V55.8125C12.9062 56.0103 12.9649 56.2036 13.0748 56.368C13.1846 56.5325 13.3408 56.6606 13.5235 56.7363C13.7063 56.812 13.9073 56.8318 14.1013 56.7932C14.2952 56.7546 14.4734 56.6594 14.6132 56.5195L16.9062 54.2266L19.1992 56.5196C19.3391 56.6594 19.5173 56.7547 19.7112 56.7933C19.9052 56.8318 20.1063 56.812 20.289 56.7364C20.4717 56.6607 20.6279 56.5325 20.7378 56.3681C20.8476 56.2036 20.9063 56.0103 20.9062 55.8125V52.8125H58.9062C59.4365 52.8119 59.9449 52.601 60.3198 52.226C60.6947 51.8511 60.9056 51.3427 60.9062 50.8125V48.8125C60.9056 48.2823 60.6947 47.7739 60.3198 47.399C59.9449 47.024 59.4365 46.8131 58.9062 46.8125H58.2212C57.8478 46.505 56.9062 45.4728 56.9062 42.8125C56.9062 40.133 57.8615 39.1045 58.2161 38.8125ZM54.9062 20.8125C55.1714 20.8128 55.4256 20.9182 55.6131 21.1057C55.8005 21.2932 55.906 21.5474 55.9062 21.8125V31.8125C55.906 32.0776 55.8005 32.3318 55.6131 32.5193C55.4256 32.7068 55.1714 32.8122 54.9062 32.8125H27.9062V20.8125H34.9062V23.8125C34.9062 24.0103 34.9649 24.2036 35.0748 24.368C35.1847 24.5325 35.3408 24.6606 35.5235 24.7363C35.7063 24.812 35.9073 24.8318 36.1013 24.7932C36.2952 24.7546 36.4734 24.6594 36.6133 24.5195L38.9062 22.2266L41.1992 24.5196C41.3391 24.6594 41.5173 24.7547 41.7112 24.7933C41.9052 24.8318 42.1063 24.812 42.289 24.7364C42.4717 24.6607 42.6279 24.5325 42.7378 24.3681C42.8476 24.2036 42.9063 24.0103 42.9062 23.8125V20.8125H54.9062ZM25.9062 20.8125V32.8125H13.9062V20.8125H25.9062ZM40.9062 11.8125V21.3984L39.6133 20.1054C39.5204 20.0126 39.4102 19.9389 39.2889 19.8886C39.1676 19.8383 39.0375 19.8125 38.9062 19.8125C38.7749 19.8125 38.6449 19.8383 38.5236 19.8886C38.4022 19.9389 38.292 20.0126 38.1992 20.1054L36.9062 21.3984V11.8125H40.9062ZM8.90625 2.8125H45.9062C47.7621 2.81466 49.5413 3.55286 50.8536 4.86514C52.1659 6.17743 52.9041 7.95665 52.9062 9.8125V11.8125C52.9041 13.6684 52.1659 15.4476 50.8536 16.7599C49.5413 18.0721 47.7621 18.8103 45.9062 18.8125H42.9062V16.8125H45.9062C47.2319 16.8109 48.5027 16.2837 49.4401 15.3463C50.3774 14.409 50.9047 13.1381 50.9062 11.8125V9.8125C50.9047 8.4869 50.3774 7.21603 49.4401 6.27868C48.5027 5.34134 47.2319 4.81406 45.9062 4.8125H8.90625V2.8125ZM12.0657 6.8125H45.9062C46.7016 6.81337 47.4642 7.12972 48.0266 7.69214C48.589 8.25456 48.9054 9.01712 48.9062 9.8125V11.8125C48.9054 12.6079 48.589 13.3704 48.0266 13.9329C47.4642 14.4953 46.7016 14.8116 45.9062 14.8125H42.9062V11.8125H44.9062C45.1715 11.8125 45.4258 11.7071 45.6134 11.5196C45.8009 11.3321 45.9062 11.0777 45.9062 10.8125C45.9062 10.5473 45.8009 10.2929 45.6134 10.1054C45.4258 9.91786 45.1715 9.8125 44.9062 9.8125H16.9062C16.641 9.8125 16.3867 9.91786 16.1991 10.1054C16.0116 10.2929 15.9062 10.5473 15.9062 10.8125C15.9062 11.0777 16.0116 11.3321 16.1991 11.5196C16.3867 11.7071 16.641 11.8125 16.9062 11.8125H34.9062V14.8125H12.0657C12.6629 13.5659 12.9512 12.194 12.9062 10.8125C12.9512 9.43103 12.6629 8.05905 12.0657 6.8125ZM8.90625 16.8125H34.9062V18.8125H8.90625V16.8125ZM6.90625 32.8125C6.64111 32.8122 6.38691 32.7068 6.19944 32.5193C6.01196 32.3318 5.90651 32.0776 5.90625 31.8125V21.8125C5.90651 21.5474 6.01196 21.2932 6.19944 21.1057C6.38691 20.9182 6.64111 20.8128 6.90625 20.8125H11.9062V32.8125H6.90625ZM9.90625 50.8125C8.0504 50.8103 6.27118 50.0721 4.95889 48.7599C3.64661 47.4476 2.90841 45.6684 2.90625 43.8125V41.8125C2.90841 39.9566 3.64661 38.1774 4.95889 36.8651C6.27118 35.5529 8.0504 34.8147 9.90625 34.8125H58.9062V36.8125H9.90625C8.58065 36.8141 7.30978 37.3413 6.37244 38.2787C5.43509 39.216 4.90781 40.4869 4.90625 41.8125V43.8125C4.90781 45.1381 5.43509 46.409 6.37244 47.3463C7.30978 48.2837 8.58065 48.8109 9.90625 48.8125H12.9062V50.8125H9.90625ZM17.6133 52.1055C17.5204 52.0126 17.4102 51.9389 17.2889 51.8887C17.1676 51.8384 17.0375 51.8125 16.9062 51.8125C16.7749 51.8125 16.6449 51.8384 16.5236 51.8887C16.4022 51.9389 16.292 52.0126 16.1992 52.1055L14.9062 53.3984V43.8125H18.9062V53.3984L17.6133 52.1055ZM58.9062 50.8125H20.9062V48.8125H58.9062V50.8125ZM20.9062 46.8125V43.8125H50.9062C51.1715 43.8125 51.4258 43.7071 51.6134 43.5196C51.8009 43.3321 51.9062 43.0777 51.9062 42.8125C51.9062 42.5473 51.8009 42.2929 51.6134 42.1054C51.4258 41.9179 51.1715 41.8125 50.9062 41.8125H10.9062C10.641 41.8125 10.3867 41.9179 10.1991 42.1054C10.0116 42.2929 9.90625 42.5473 9.90625 42.8125C9.90625 43.0777 10.0116 43.3321 10.1991 43.5196C10.3867 43.7071 10.641 43.8125 10.9062 43.8125H12.9062V46.8125H9.90625C9.11087 46.8116 8.34831 46.4953 7.78589 45.9329C7.22347 45.3704 6.90712 44.6079 6.90625 43.8125V41.8125C6.90712 41.0171 7.22347 40.2546 7.78589 39.6921C8.34831 39.1297 9.11087 38.8134 9.90625 38.8125H55.7468C55.1496 40.0591 54.8613 41.431 54.9062 42.8125C54.8613 44.194 55.1496 45.5659 55.7468 46.8125H20.9062Z" fill="black"/>
</g>
</svg>
