<svg width="60" height="60" viewBox="0 0 60 60" fill="none" xmlns="http://www.w3.org/2000/svg">
<g id="Group">
<g id="Group_2">
<path id="Vector" d="M60 1.75781V7.5L51.3281 8.67188L52.5 0H58.2422C59.213 0 60 0.787031 60 1.75781Z" fill="#CC1469"/>
</g>
<g id="Group_3">
<path id="Vector_2" d="M52.5 0V8.67188L0 7.5V1.75781C0 0.787031 0.787031 0 1.75781 0H52.5Z" fill="#F5F5FC"/>
</g>
<path id="Vector_3" d="M29.9941 0H52.5001V8.16949H29.9941V0Z" fill="#DFDFF2"/>
<g id="Group_4">
<path id="Vector_4" d="M30 7.5L31.1719 34.9225L0 33.7506V7.5H30Z" fill="#FBEF5A"/>
</g>
<g id="Group_5">
<path id="Vector_5" d="M60 7.5V33.7506L45 37.6172L30 33.7506V7.5H60Z" fill="#406BCF"/>
</g>
<g id="Group_6">
<path id="Vector_6" d="M24.2578 33.75L15 34.9225L5.74219 33.75C5.74219 28.6452 9.8952 24.4922 15 24.4922C20.1048 24.4922 24.2578 28.6452 24.2578 33.75Z" fill="#9BDC65"/>
</g>
<g id="Group_7">
<path id="Vector_7" d="M54.2578 33.75L45 35.2148L35.7422 33.75C35.7422 28.6452 39.8952 24.4922 45 24.4922C50.1048 24.4922 54.2578 28.6452 54.2578 33.75Z" fill="#DD5365"/>
</g>
<g id="Group_8">
<path id="Vector_8" d="M30 33.75L32.7735 46.8747L30 59.9994H24.2578L15 56.8354L5.74219 59.9994H1.75781C0.787031 59.9994 0 59.2124 0 58.2416V33.75H30Z" fill="#DD5365"/>
</g>
<g id="Group_9">
<path id="Vector_9" d="M60 33.75V58.2416C60 59.2124 59.213 59.9994 58.2422 59.9994H54.2578L45 57.1088L35.7422 59.9994H30V33.75H60Z" fill="#9FDAFE"/>
</g>
<g id="Group_10">
<path id="Vector_10" d="M24.2578 60H5.74219C5.74219 54.8952 9.8952 50.7422 15 50.7422C20.1048 50.7422 24.2578 54.8952 24.2578 60Z" fill="#9FDAFE"/>
</g>
<g id="Group_11">
<path id="Vector_11" d="M54.2578 60H35.7422C35.7422 54.8952 39.8952 50.7422 45 50.7422C50.1048 50.7422 54.2578 54.8952 54.2578 60Z" fill="#FBEF5A"/>
</g>
<g id="Group_12">
<path id="Vector_12" d="M15 28.0078C10.9291 28.0078 7.61719 24.6959 7.61719 20.625C7.61719 16.5541 10.9291 13.2422 15 13.2422C19.0709 13.2422 22.3828 16.5541 22.3828 20.625C22.3828 24.6959 19.0709 28.0078 15 28.0078Z" fill="#D99668"/>
</g>
<g id="Group_13">
<path id="Vector_13" d="M45 28.0078C40.9291 28.0078 37.6172 24.6959 37.6172 20.625C37.6172 16.5541 40.9291 13.2422 45 13.2422C49.0709 13.2422 52.3828 16.5541 52.3828 20.625C52.3828 24.6959 49.0709 28.0078 45 28.0078Z" fill="#FFC6C2"/>
</g>
<g id="Group_14">
<path id="Vector_14" d="M15 54.2578C10.9291 54.2578 7.61719 50.9459 7.61719 46.875C7.61719 42.8041 10.9291 39.4922 15 39.4922C19.0709 39.4922 22.3828 42.8041 22.3828 46.875C22.3828 50.9459 19.0709 54.2578 15 54.2578Z" fill="#FFDBD6"/>
</g>
<g id="Group_15">
<path id="Vector_15" d="M45 54.2578C40.9291 54.2578 37.6172 50.9459 37.6172 46.875C37.6172 42.8041 40.9291 39.4922 45 39.4922C49.0709 39.4922 52.3828 42.8041 52.3828 46.875C52.3828 50.9459 49.0709 54.2578 45 54.2578Z" fill="#805142"/>
</g>
</g>
</svg>
