<svg width="102" height="172" viewBox="0 0 102 172" fill="none" xmlns="http://www.w3.org/2000/svg">
<rect width="102" height="172" fill="#B0B0B0"/>
<g id="Class_Teacher_Dashboard" clip-path="url(#clip0_0_1)">
<rect width="1440" height="1189" transform="translate(-1152 -152)" fill="white"/>
<path id="Rectangle 103" d="M-903 -152H288V757H-903V-152Z" fill="#A990F5"/>
<path id="Rectangle 102" d="M-904 -72C-904 -88.5686 -890.569 -102 -874 -102H258C274.569 -102 288 -88.5685 288 -72V1037H-904V-72Z" fill="#F1F5F9"/>
<rect id="Rectangle 5" x="-873" y="-72" width="1131" height="280" rx="24" fill="#A990F5"/>
<g id="Mask Group">
<mask id="mask0_0_1" style="mask-type:alpha" maskUnits="userSpaceOnUse" x="-874" y="-45" width="1131" height="236">
<rect id="Rectangle 1772" x="-874" y="-45" width="1131" height="236" fill="#C4C4C4"/>
</mask>
<g mask="url(#mask0_0_1)">
<g id="petal_bg">
<g id="Wing">
<g id="Group-3_1_" opacity="0.05">
<path id="Fill-1_2_" d="M301.261 0.920685C301.261 0.920685 269.723 20.7608 33.2996 25.5042C-145.622 29.0928 -482.387 -36.2846 -686.127 -32.0774C-895.823 -27.7876 -873.295 15.6048 -873.295 -13.4747V30.0002C-873.295 30.0002 -803.269 -10.8761 -681.545 -10.5049C-502.548 -9.88618 -134.396 79.1261 41.5469 81.8897C213.137 84.5708 301.261 30.0002 301.261 30.0002V0.920685Z" fill="white"/>
</g>
<g id="Group-3_2_" opacity="0.1">
<path id="Fill-1_3_" d="M262.281 0.192383C-142.96 160.827 -420.797 -49.6138 -636.456 -44.9203C-858.503 -40.0622 -874 42.0422 -874 9.31154V58.2634C-874 58.2634 -800.973 38.0151 -675.807 31.8135C-221.654 9.31154 -195.178 210.578 15.9003 189.076C226.978 167.573 373.981 -44.0851 262.281 0.192383Z" fill="white"/>
</g>
</g>
</g>
</g>
</g>
<g id="Group">
<g id="Group_2">
<g id="Group_3">
<g id="Group_4">
<path id="Vector" d="M92.6068 2.40827C92.4787 2.04278 92.2226 1.7364 91.9131 1.51066C91.609 1.29028 91.2408 1.14516 90.8673 1.15054C90.4724 1.15054 90.0776 1.32791 89.8055 1.61815C89.6454 1.79015 89.528 2.00515 89.4693 2.23627C89.3252 2.0804 89.1438 1.9514 88.9464 1.87078C88.5782 1.72028 88.146 1.73103 87.7885 1.90303C87.447 2.06427 87.1802 2.34915 86.9988 2.67702C86.812 3.01027 86.7107 3.40263 86.7533 3.78426C86.8067 4.26263 87.0095 4.75175 87.3403 5.10112C87.6871 5.46661 88.178 5.71924 88.6529 5.88048C89.4586 6.14923 90.5151 6.4771 90.5151 6.4771C90.5151 6.4771 91.1714 5.70311 91.7851 5.11187C92.1479 4.7625 92.4841 4.32175 92.6441 3.84338C92.7882 3.39726 92.7669 2.86514 92.6068 2.40827Z" fill="#EB763C"/>
</g>
</g>
</g>
<g id="Group_5">
<g id="Group_6">
<g id="Group_7">
<path id="Vector_2" d="M16.9335 81.7802C17.0189 81.404 16.9602 81.0062 16.8161 80.6515C16.6721 80.3021 16.4373 79.985 16.1225 79.7915C15.7863 79.5819 15.3594 79.5228 14.9753 79.6249C14.7458 79.6894 14.5377 79.8076 14.3616 79.9689C14.3189 79.7592 14.2336 79.555 14.1055 79.3776C13.8707 79.0551 13.5026 78.8348 13.1077 78.7864C12.7342 78.738 12.3553 78.8401 12.0299 79.0229C11.6937 79.211 11.4056 79.4851 11.2401 79.8291C11.032 80.2645 10.9467 80.7859 11.0427 81.2589C11.1441 81.7587 11.4269 82.2317 11.7471 82.6187C12.2913 83.2798 13.0117 84.1183 13.0117 84.1183C13.0117 84.1183 13.9775 83.812 14.8045 83.64C15.3007 83.5378 15.813 83.3443 16.1972 83.0165C16.5707 82.7155 16.8268 82.2532 16.9335 81.7802Z" fill="#EB763C"/>
</g>
</g>
</g>
<g id="Group_8">
<g id="Group_9">
<g id="Group_10">
<path id="Vector_3" d="M22.803 64.387C22.723 64.1613 22.5629 63.9624 22.3655 63.8227C22.1734 63.6829 21.9439 63.5915 21.7091 63.5969C21.4584 63.5969 21.2129 63.7098 21.0422 63.8925C20.9408 64 20.8661 64.1398 20.8287 64.2795C20.738 64.1828 20.626 64.1021 20.4979 64.0484C20.2685 63.957 19.9963 63.9624 19.7722 64.0699C19.5588 64.172 19.388 64.3494 19.276 64.559C19.1586 64.7686 19.0946 65.0159 19.1212 65.2578C19.1533 65.5588 19.2813 65.8651 19.4894 66.0855C19.7082 66.3166 20.0123 66.4725 20.3165 66.5746C20.8234 66.7466 21.485 66.9509 21.485 66.9509C21.485 66.9509 21.8959 66.4671 22.2854 66.0909C22.5149 65.8705 22.723 65.5964 22.8243 65.29C22.9204 65.0051 22.9044 64.6719 22.803 64.387Z" fill="#EB763C"/>
</g>
</g>
</g>
</g>
<g id="Group_11">
<path id="Vector_4" d="M34.9765 70.5076L47.8765 68.5909L41.7112 59.8398L38.4028 60.0351C36.1768 60.1687 34.2174 61.5459 33.3352 63.5962C32.8684 64.6856 32.735 65.8932 32.9607 67.0545L34.9765 70.5076Z" fill="#EB763C"/>
<path id="Vector_5" opacity="0.4" d="M34.9765 70.5076L47.8765 68.5909L41.7112 59.8398L38.4028 60.0351C36.1768 60.1687 34.2174 61.5459 33.3352 63.5962C32.8684 64.6856 32.735 65.8932 32.9607 67.0545L34.9765 70.5076Z" fill="black"/>
</g>
<g id="Group_12">
<g id="Group_13">
<path id="Vector_6" d="M90.382 84.8291C90.5153 85.1991 90.6589 85.6359 90.8077 86.16C90.9359 86.6122 90.9769 87.0798 90.9462 87.5423C90.9103 88.1075 90.8282 88.8578 90.6538 89.2534C90.4435 89.7416 90.9359 90.2349 91.3514 89.9934C91.7668 89.7468 92.3875 88.4107 92.3465 86.6944C92.3105 84.973 94.0596 87.0336 94.711 87.7735C95.3624 88.5135 97.4859 90.7077 97.8706 90.6871C98.4349 90.6563 98.5067 90.0448 97.8399 89.3203C97.1628 88.5854 95.3214 86.2833 95.7266 85.9596C96.1267 85.641 99.394 89.4487 99.394 89.4487C99.394 89.4487 99.9582 90.3788 100.44 90.014C101.312 89.3614 97.5424 85.569 97.1731 85.2145C96.9166 84.9678 97.3475 84.5979 97.609 84.8753C97.8758 85.1631 100.779 88.755 101.671 88.0973C102.354 87.5937 98.599 84.9473 98.4092 83.8682C98.2194 82.789 101.056 86.1651 101.687 85.6615C101.923 85.4714 102.071 85.3018 100.169 83.5958C99.2453 82.7685 95.7266 80.3019 95.7266 80.3019L85.1399 49.9326L76.9639 54.6242L90.382 84.8291Z" fill="#FFBE9D"/>
</g>
<path id="Vector_7" d="M27.3592 27.4004L15.5312 13.2589C15.3773 12.7707 15.1926 12.298 14.9516 11.8509C14.3617 10.7461 13.382 9.78519 12.1613 9.51798C11.4124 9.35354 10.5507 9.43062 9.96595 8.93731C9.70436 8.71635 9.52484 8.4029 9.25299 8.19735C8.97601 7.99181 8.5195 7.9507 8.33998 8.24874C8.21688 8.45942 8.29382 8.72663 8.39127 8.95273C8.83239 9.99587 9.54535 10.9208 10.443 11.6094C9.33505 11.9486 7.75012 12.4573 7.75012 12.4573C7.75012 12.4573 5.24705 9.73894 3.96987 9.74922C2.68756 9.7595 5.00597 12.1747 5.00597 12.1747C5.00597 12.1747 2.95428 10.2734 2.31825 10.8129C1.68223 11.3473 3.31333 12.7553 3.31333 12.7553C2.79527 12.4778 2.23106 12.1901 1.65145 12.2877C1.07185 12.3853 0.574312 13.0688 0.887195 13.5672C1.00517 13.7574 1.21034 13.8755 1.41038 13.9835C2.46187 14.5693 3.50824 15.1551 4.55973 15.7409C5.08804 16.0338 5.642 16.3369 6.24212 16.3575C7.83732 16.4089 9.05295 15.4171 10.6533 15.4582C10.6533 15.4582 19.573 34.2708 20.4758 35.242C21.3785 36.2132 40.9773 37.5338 40.9773 37.5338L52.3181 27.7447L27.3592 27.4004Z" fill="#FFBE9D"/>
<g id="Group_14">
<path id="Vector_8" d="M62.8886 129.88L74.968 135.152L68.5 150.244C67.0997 149.535 67.5562 140.486 67.5562 140.486L59.6777 137.429L62.8886 129.88Z" fill="#EB763C"/>
<g id="Group_15" opacity="0.6">
<path id="Vector_9" opacity="0.6" d="M68.9051 135.532C69.1103 135.275 69.5258 135.214 69.7874 135.409C70.0541 135.604 70.1208 136.026 69.9156 136.288C69.7156 136.55 69.218 136.637 68.9769 136.416C68.7359 136.195 68.6846 135.692 68.941 135.486" fill="white"/>
</g>
<path id="Vector_10" opacity="0.6" d="M74.9733 135.147L73.7372 134.664L67.9976 149.314C67.9976 149.314 68.0027 150.111 68.5053 150.239L74.9733 135.147Z" fill="white"/>
<g id="Group_16">
<path id="Vector_11" d="M67.3767 140.692C67.4536 140.723 67.6434 140.368 68.0332 140.106C68.4179 139.834 68.818 139.787 68.818 139.705C68.8334 139.633 68.3461 139.551 67.8793 139.875C67.4075 140.198 67.3049 140.681 67.3767 140.692Z" fill="#263238"/>
</g>
<g id="Group_17">
<path id="Vector_12" d="M67.3512 142.557C67.4127 142.603 67.6794 142.341 68.0949 142.223C68.5104 142.094 68.8745 142.176 68.9002 142.099C68.9412 142.033 68.5309 141.796 68.0128 141.956C67.4999 142.105 67.2845 142.526 67.3512 142.557Z" fill="#263238"/>
</g>
<g id="Group_18">
<path id="Vector_13" d="M68.8588 144.268C68.9049 144.206 68.5818 143.949 68.0945 143.965C67.6124 143.975 67.3046 144.257 67.3508 144.314C67.3918 144.381 67.7047 144.252 68.1048 144.242C68.4997 144.227 68.8177 144.34 68.8588 144.268Z" fill="#263238"/>
</g>
<g id="Group_19">
<path id="Vector_14" d="M65.6585 139.797C65.7406 139.797 65.7816 139.412 65.9868 139.011C66.1868 138.6 66.4638 138.338 66.4176 138.271C66.3817 138.204 65.9765 138.405 65.7355 138.883C65.4995 139.361 65.5867 139.808 65.6585 139.797Z" fill="#263238"/>
</g>
<g id="Group_20">
<path id="Vector_15" d="M64.0273 138.667C64.0581 138.682 64.2274 138.41 64.3453 137.911C64.4069 137.665 64.4479 137.356 64.4428 137.017C64.4428 136.848 64.4274 136.668 64.3966 136.483C64.3812 136.395 64.371 136.293 64.3146 136.18C64.2735 136.066 64.0991 135.933 63.9401 135.979C63.7914 136.005 63.6837 136.123 63.6324 136.231C63.5811 136.339 63.5657 136.442 63.5503 136.529C63.5195 136.714 63.5093 136.894 63.5093 137.069C63.5144 137.413 63.5811 137.721 63.6683 137.963C63.8427 138.451 64.0632 138.687 64.0889 138.672C64.1299 138.651 63.9709 138.379 63.8581 137.906C63.8016 137.67 63.7606 137.387 63.7657 137.069C63.7709 136.909 63.7863 136.745 63.817 136.575C63.8427 136.395 63.8991 136.262 63.9914 136.251C64.0273 136.246 64.0376 136.251 64.0684 136.303C64.0991 136.354 64.1094 136.436 64.1248 136.524C64.1556 136.693 64.171 136.863 64.1812 137.022C64.1966 137.341 64.1812 137.634 64.1453 137.875C64.0889 138.358 63.9863 138.651 64.0273 138.667Z" fill="#263238"/>
</g>
<g id="Group_21">
<path id="Vector_16" d="M64.1711 138.616C64.1917 138.595 63.9916 138.333 63.53 138.102C63.2992 137.989 63.0017 137.891 62.658 137.85C62.4887 137.83 62.3041 137.83 62.1194 137.845C61.9348 137.871 61.6886 137.891 61.5296 138.164C61.4578 138.313 61.5245 138.482 61.6065 138.57C61.6886 138.662 61.7707 138.708 61.8476 138.765C62.0117 138.868 62.1861 138.94 62.3554 138.986C62.6939 139.078 63.0171 139.058 63.2735 138.996C63.7916 138.868 64.0121 138.6 63.9865 138.585C63.9608 138.544 63.7095 138.739 63.2376 138.806C63.0068 138.837 62.7196 138.832 62.4272 138.739C62.2836 138.693 62.1348 138.626 61.9963 138.539C61.8476 138.446 61.745 138.328 61.786 138.277C61.8168 138.2 61.9912 138.128 62.1451 138.117C62.3144 138.097 62.4785 138.097 62.6324 138.107C62.9452 138.128 63.2222 138.2 63.4479 138.287C63.9044 138.456 64.1455 138.652 64.1711 138.616Z" fill="#263238"/>
</g>
</g>
<g id="Group_22">
<path id="Vector_17" d="M53.5854 150.609L58.5813 161.097L60.1457 170.532C60.2586 171.21 60.9203 171.652 61.5922 171.492C61.9666 171.405 62.2744 171.143 62.418 170.783C63.3361 168.507 66.6753 160.105 66.2649 159.36C65.793 158.497 61.7256 147.947 61.7256 147.947L53.5854 150.609Z" fill="#EB763C"/>
<path id="Vector_18" opacity="0.6" d="M61.5972 171.498L65.9519 158.651L66.1519 159.098C66.3263 159.489 66.3571 159.926 66.2391 160.332C65.9211 161.426 64.9825 164.427 62.4538 170.773C62.305 171.143 61.9819 171.416 61.5972 171.498Z" fill="white"/>
<g id="Group_23" opacity="0.6">
<path id="Vector_19" opacity="0.6" d="M62.2434 156.21C62.0587 156.513 62.1562 156.955 62.4485 157.15C62.7409 157.346 63.1923 157.253 63.3769 156.955C63.5667 156.657 63.4693 156.123 63.1564 155.963C62.8435 155.804 62.3203 155.938 62.2126 156.277" fill="white"/>
</g>
<g id="Group_24">
<path id="Vector_20" d="M61.9352 165.778C61.8891 165.835 61.4018 165.388 60.6375 165.372C59.8733 165.337 59.3552 165.748 59.3142 165.686C59.2937 165.665 59.3911 165.522 59.6219 165.372C59.8528 165.223 60.2221 165.1 60.6478 165.116C61.0684 165.131 61.4326 165.285 61.6531 165.444C61.8686 165.609 61.9558 165.758 61.9352 165.778Z" fill="#263238"/>
</g>
<g id="Group_25">
<path id="Vector_21" d="M61.8172 167.536C61.7864 167.603 61.294 167.413 60.6734 167.5C60.0527 167.577 59.627 167.891 59.5808 167.834C59.5244 167.793 59.9348 167.341 60.6426 167.248C61.3453 167.151 61.8582 167.485 61.8172 167.536Z" fill="#263238"/>
</g>
<g id="Group_26">
<path id="Vector_22" d="M62.5196 163.327C62.4939 163.399 61.7348 163.101 60.7603 163.158C59.7857 163.199 59.0625 163.569 59.0266 163.497C58.9855 163.445 59.7036 162.947 60.75 162.901C61.7912 162.844 62.5606 163.276 62.5196 163.327Z" fill="#263238"/>
</g>
<g id="Group_27">
<path id="Vector_23" d="M61.2683 160.013C61.2683 160.09 60.5758 160.105 59.8013 160.424C59.0217 160.727 58.5087 161.194 58.4574 161.138C58.4061 161.097 58.8729 160.516 59.709 160.187C60.5399 159.848 61.2785 159.946 61.2683 160.013Z" fill="#263238"/>
</g>
<g id="Group_28">
<path id="Vector_24" d="M59.8784 156.893C59.8733 156.97 59.1244 156.883 58.3397 157.279C57.5446 157.659 57.1599 158.306 57.0933 158.265C57.0676 158.25 57.124 158.065 57.3036 157.813C57.4831 157.561 57.8011 157.258 58.2268 157.048C58.6526 156.837 59.0885 156.77 59.3963 156.78C59.704 156.796 59.8836 156.863 59.8784 156.893Z" fill="#263238"/>
</g>
<g id="Group_29">
<path id="Vector_25" d="M58.0933 156.683C58.0779 156.688 57.9907 156.559 57.8984 156.287C57.8061 156.02 57.7137 155.609 57.7445 155.095C57.7702 154.848 57.7753 154.54 58.0061 154.268C58.119 154.129 58.3549 154.062 58.5396 154.144C58.7242 154.226 58.8422 154.381 58.9191 154.545C59.2115 155.223 58.9243 156.133 58.2113 156.57C57.4881 156.996 56.611 156.868 56.0467 156.426C55.9134 156.302 55.7852 156.143 55.7852 155.927C55.7852 155.712 55.9698 155.542 56.1288 155.501C56.4622 155.408 56.7443 155.501 56.9905 155.552C57.4881 155.681 57.8522 155.886 58.0831 156.051C58.3139 156.215 58.4216 156.333 58.4113 156.344C58.3857 156.39 57.9087 155.943 56.9495 155.727C56.7136 155.686 56.4366 155.624 56.2006 155.701C56.0878 155.742 56.0108 155.825 56.0108 155.932C56.0108 156.035 56.0929 156.159 56.2006 156.251C56.6674 156.611 57.4727 156.724 58.0779 156.354C58.6832 155.994 58.9294 155.193 58.7037 154.643C58.6473 154.514 58.5549 154.396 58.4472 154.35C58.3446 154.304 58.2318 154.329 58.1497 154.411C57.9805 154.586 57.9446 154.874 57.9138 155.11C57.8317 156.087 58.1446 156.667 58.0933 156.683Z" fill="#263238"/>
</g>
</g>
<g id="Group_30">
<path id="Vector_26" d="M70.4236 131.159L56.7234 121.92L61.2577 77.3216L48.2807 69.7318L36.4168 66.9775C36.4168 66.9775 31.4619 77.3062 29.2564 83.9196C24.5682 97.9841 21.2804 103.02 22.0293 113.215C22.2652 116.442 34.1599 124.51 41.6691 128.996C41.7717 130.023 41.9051 130.923 42.0692 131.668C44.6338 143.291 52.4662 158.743 52.4662 158.743L64.3711 153.199L60.5293 140.018L64.5301 142.356L70.4236 131.159ZM40.9767 102.398L42.577 95.2503C42.2385 99.798 41.9307 104.536 41.7101 109.084C40.9408 106.982 40.674 104.649 40.9767 102.398Z" fill="#D6F5E1"/>
<g id="Group_31">
<path id="Vector_27" d="M52.4658 158.738C52.4607 158.738 52.4299 158.677 52.3735 158.548C52.3119 158.41 52.2299 158.225 52.1273 157.988C51.9118 157.479 51.6041 156.75 51.2091 155.814C50.4192 153.923 49.2857 151.179 47.9264 147.773C46.5723 144.366 44.9566 140.306 43.3358 135.733C42.9305 134.587 42.5356 133.41 42.1612 132.192C41.997 131.576 41.7867 130.969 41.679 130.317C41.6482 130.157 41.6123 129.993 41.5867 129.834L41.5303 129.345C41.4944 129.022 41.4584 128.693 41.4225 128.364C41.2841 127.048 41.1661 125.712 41.084 124.351C41.043 123.672 41.0019 122.984 40.9763 122.29C40.9507 121.601 40.9199 120.897 40.9609 120.199C41.161 114.592 41.6328 109.284 42.0175 104.449C42.4227 99.6184 42.7818 95.266 43.0895 91.6072C43.387 87.9537 43.5922 84.9938 43.7102 82.9435C43.7717 81.9209 43.8076 81.1244 43.8333 80.5849C43.8487 80.3228 43.8589 80.1224 43.8641 79.9734C43.8743 79.8346 43.8795 79.7627 43.8846 79.7627C43.8897 79.7627 43.8897 79.8346 43.8897 79.9734C43.8897 80.1224 43.8846 80.3279 43.8795 80.59C43.8743 81.1296 43.8538 81.9261 43.8025 82.9538C43.7153 85.0041 43.5358 87.9691 43.2639 91.6278C42.9716 95.2865 42.6279 99.6389 42.2484 104.474C41.8739 109.31 41.4123 114.628 41.2122 120.214C41.1712 120.913 41.202 121.601 41.2276 122.29C41.2533 122.979 41.2892 123.662 41.3353 124.34C41.4225 125.697 41.5354 127.033 41.6687 128.343C41.7047 128.672 41.7406 128.996 41.7765 129.32L41.8329 129.803C41.8585 129.962 41.8944 130.116 41.9252 130.275C42.0278 130.902 42.233 131.514 42.3971 132.125C42.7664 133.338 43.1562 134.515 43.5614 135.656C45.172 140.224 46.7672 144.289 48.1008 147.706C49.4498 151.102 50.5475 153.857 51.3117 155.773C51.6862 156.714 51.9837 157.454 52.1888 157.968C52.2811 158.209 52.3581 158.399 52.4145 158.538C52.4504 158.666 52.4709 158.733 52.4658 158.738Z" fill="#455A64"/>
</g>
<g id="Group_32">
<path id="Vector_28" d="M43.3103 78.2573C43.3001 78.2727 43.1923 78.1802 42.9974 78.0055C42.8179 77.8154 42.6025 77.5019 42.4178 77.0754C42.0485 76.2173 41.8639 74.9326 41.8331 73.5349C41.8075 72.1321 41.91 70.868 42.0024 69.9636C42.0947 69.054 42.1716 68.4939 42.2075 68.4991C42.2434 68.4991 42.2281 69.0694 42.1819 69.979C42.1357 70.8885 42.0639 72.1475 42.0896 73.5349C42.1152 74.9172 42.2742 76.171 42.5871 77.0138C42.741 77.4351 42.9256 77.7486 43.0744 77.949C43.2385 78.1289 43.3206 78.2419 43.3103 78.2573Z" fill="#455A64"/>
</g>
<g id="Group_33">
<path id="Vector_29" d="M38.1913 67.6407C38.217 67.6355 38.3401 68.1083 38.2939 68.8894C38.2529 69.6602 37.9862 70.7495 37.3142 71.7464C36.6372 72.7433 35.7242 73.3857 35.0215 73.7094C34.3136 74.0383 33.8315 74.0948 33.8263 74.0691C33.8161 74.028 34.2777 73.9047 34.9394 73.545C35.6011 73.1904 36.4576 72.5532 37.1039 71.6026C37.7502 70.6519 38.0323 69.619 38.1195 68.8739C38.2016 68.1237 38.1452 67.6458 38.1913 67.6407Z" fill="#455A64"/>
</g>
<g id="Group_34">
<path id="Vector_30" d="M59.4728 93.5703C59.478 93.5703 59.478 93.6166 59.4677 93.7039C59.4575 93.8067 59.4472 93.9403 59.4369 94.0996C59.401 94.4644 59.3497 94.9783 59.2831 95.6206C59.1394 96.9618 58.9291 98.8682 58.6727 101.217C58.1392 105.954 57.4006 112.47 56.5851 119.664C56.2722 123.266 56.5851 126.735 57.2621 129.787C57.5955 131.319 58.0367 132.742 58.5034 134.058C58.9651 135.373 59.3959 136.601 59.7857 137.727C60.5602 139.957 61.186 141.771 61.6271 143.045C61.8323 143.662 61.9964 144.145 62.1144 144.494C62.1657 144.648 62.2016 144.772 62.2375 144.874C62.2632 144.962 62.2734 145.003 62.2683 145.008C62.2632 145.008 62.2426 144.967 62.2119 144.885C62.176 144.787 62.1247 144.664 62.0682 144.515C61.94 144.17 61.7605 143.687 61.5348 143.081C61.0732 141.812 60.4218 140.008 59.6165 137.788C59.2164 136.668 58.7753 135.445 58.3034 134.13C57.8264 132.814 57.375 131.38 57.0313 129.844C56.3389 126.771 56.0157 123.277 56.3338 119.644C57.1339 112.429 57.9289 105.918 58.4932 101.196C58.7804 98.8528 59.0163 96.9464 59.1805 95.6104C59.2677 94.968 59.3344 94.4593 59.3805 94.0945C59.4062 93.9352 59.4216 93.8016 59.4369 93.6988C59.4626 93.6166 59.4728 93.5703 59.4728 93.5703Z" fill="#455A64"/>
</g>
</g>
<g id="Group_35">
<path id="Vector_31" d="M36.417 66.8909L38.52 61.5107L43.3107 68.674L36.9197 67.0707" fill="#FFBE9D"/>
<path id="Vector_32" d="M86.5913 50.7199L80.903 37.9401C80.2208 35.8846 78.9487 35.566 77.8767 34.3739L63.6225 26.3216C53.2358 22.0566 47.5783 36.3574 47.5783 36.3574L38.1353 57.9345C27.0305 61.6241 34.8937 70.1645 34.8937 70.1645C34.8937 70.1645 31.8725 64.9025 34.8424 63.0064C37.9507 61.0177 41.4027 66.254 44.7162 71.2282C48.6298 77.0965 61.34 80.9094 61.34 80.9094C62.8275 79.3369 62.412 73.8437 63.5764 70.8942C63.9457 69.9589 72.7475 49.5329 72.7475 49.5329L76.1584 57.8163C76.1584 57.8163 80.5336 52.6777 82.652 51.8607C84.7653 51.0487 86.5913 50.7199 86.5913 50.7199Z" fill="#EB763C"/>
<g id="Group_36">
<path id="Vector_33" d="M61.3352 59.8044C61.3455 59.8198 61.1916 59.9329 60.9044 60.1076C60.612 60.2823 60.176 60.5084 59.6067 60.7242C58.4782 61.161 56.7702 61.495 54.9237 61.2124C53.072 60.9246 51.5486 60.087 50.6048 59.3316C50.1278 58.9565 49.779 58.6071 49.5533 58.3553C49.3277 58.0984 49.2199 57.9494 49.2353 57.9391C49.2712 57.9031 49.7483 58.4889 50.7177 59.1929C51.6717 59.8969 53.1695 60.6882 54.9698 60.9657C56.7702 61.2432 58.4321 60.9452 59.5554 60.5598C60.6787 60.1692 61.3096 59.7582 61.3352 59.8044Z" fill="#263238"/>
</g>
<path id="Vector_34" d="M37.7093 39.5378L46.5059 40.3702L60.5806 25.4682L52.302 25.1855L37.5605 26.6449C37.5605 26.6398 38.8685 32.7907 37.7093 39.5378Z" fill="#EB763C"/>
<g id="Group_37">
<path id="Vector_35" d="M49.9276 31.6858C49.9379 31.6909 49.8969 31.7834 49.8199 31.9581C49.7276 32.1585 49.6096 32.4103 49.466 32.7186C49.1429 33.4072 48.7018 34.3527 48.1581 35.5089C47.0655 37.8727 45.6139 41.1614 44.0393 44.8098C42.4646 48.4583 41.0335 51.7624 39.9513 54.1313C39.4127 55.3183 38.9665 56.2741 38.6433 56.9267C38.4894 57.2351 38.3663 57.4817 38.2689 57.677C38.1817 57.8465 38.1304 57.9339 38.1253 57.9339C38.115 57.9288 38.1509 57.8363 38.2227 57.6564C38.3099 57.456 38.4176 57.1991 38.551 56.8856C38.8536 56.1868 39.2742 55.231 39.782 54.0594C40.8232 51.6391 42.2389 48.3504 43.7982 44.7122C45.3729 41.0638 46.8501 37.7802 47.9888 35.437C48.553 34.2654 49.0249 33.3198 49.3686 32.6775C49.5276 32.3743 49.6609 32.1328 49.7635 31.9376C49.8661 31.768 49.9225 31.6806 49.9276 31.6858Z" fill="#263238"/>
</g>
<g id="Group_38">
<path id="Vector_36" d="M76.7788 36.018C76.8044 36.0591 76.2556 36.3468 75.5119 36.9789C75.1374 37.2923 74.7322 37.7137 74.3219 38.2121C73.9269 38.7209 73.5371 39.317 73.2037 39.985C72.8857 40.6581 72.66 41.3313 72.5061 41.9582C72.3677 42.5903 72.2907 43.1658 72.2753 43.654C72.2394 44.6303 72.3523 45.2367 72.3061 45.2469C72.2907 45.2521 72.2497 45.1031 72.1984 44.8256C72.1676 44.6868 72.142 44.5224 72.1317 44.322C72.1163 44.1267 72.0855 43.9006 72.0958 43.6488C72.0855 43.1504 72.1471 42.5543 72.2753 41.9017C72.4189 41.2542 72.6446 40.5605 72.9729 39.8668C73.3114 39.1782 73.7166 38.5719 74.1372 38.058C74.5681 37.5544 74.9938 37.1382 75.3939 36.835C75.5837 36.6706 75.7786 36.5575 75.9427 36.4445C76.1069 36.3314 76.2556 36.2492 76.3787 36.1875C76.63 36.0642 76.7685 36.0025 76.7788 36.018Z" fill="#263238"/>
</g>
</g>
<g id="Group_39">
<g id="Group_40">
<g id="Group_41">
<g id="Group_42">
<g id="Group_43">
<g id="Group_44">
<g id="Group_45">
<g id="Group_46">
<g id="Group_47">
<g id="Group_48">
<g id="Group_49">
<g id="Group_50">
<g id="Group_51">
<g id="Group_52">
<path id="Vector_37" d="M79.2369 15.5506L70.984 31.0076C69.635 33.5306 66.5728 34.5789 63.962 33.4125C61.0897 32.1278 59.9048 28.6746 61.3718 25.8895C62.1514 24.4147 62.7977 23.2123 62.7977 23.2123C62.7977 23.2123 59.2072 20.8845 60.8896 16.9997C62.3874 13.5362 67.8859 3.75225 69.0502 1.68652L76.0055 4.80567C79.914 6.8303 81.3758 11.6966 79.2369 15.5506Z" fill="#FFBE9D"/>
</g>
</g>
</g>
</g>
</g>
</g>
</g>
<g id="Group_53">
<g id="Group_54">
<g id="Group_55">
<g id="Group_56">
<g id="Group_57">
<g id="Group_58">
<g id="Group_59">
<path id="Vector_38" d="M62.8183 23.1504C62.8183 23.1504 65.1675 24.4402 68.4861 23.9726C68.4861 23.9726 66.0549 26.2182 62.3618 24.1473L62.8183 23.1504Z" fill="#EB996E"/>
</g>
</g>
</g>
</g>
</g>
</g>
</g>
</g>
</g>
</g>
<g id="Group_60">
<g id="Group_61">
<g id="Group_62">
<g id="Group_63">
<g id="Group_64">
<g id="Group_65">
<g id="Group_66">
<g id="Group_67">
<g id="Group_68">
<g id="Group_69">
<g id="Group_70">
<g id="Group_71">
<g id="Group_72">
<path id="Vector_39" d="M65.4698 10.7922C65.3313 11.08 65.4544 11.4346 65.7519 11.5887C66.0494 11.7429 66.4033 11.635 66.5418 11.3472C66.6803 11.0595 66.5572 10.7049 66.2597 10.5507C65.9622 10.3966 65.6083 10.5045 65.4698 10.7922Z" fill="#263238"/>
</g>
</g>
</g>
</g>
</g>
</g>
</g>
<g id="Group_73">
<g id="Group_74">
<g id="Group_75">
<g id="Group_76">
<g id="Group_77">
<g id="Group_78">
<g id="Group_79">
<g id="Group_80">
<path id="Vector_40" d="M65.5003 10.2985C65.5362 10.4012 66.0902 10.2779 66.6852 10.5451C67.2802 10.802 67.5777 11.3056 67.6751 11.2594C67.7213 11.244 67.711 11.0795 67.5828 10.8586C67.4597 10.6376 67.1981 10.3601 66.8288 10.1957C66.4595 10.0312 66.0851 10.0312 65.8491 10.0878C65.5978 10.1494 65.4798 10.2522 65.5003 10.2985Z" fill="#263238"/>
</g>
</g>
</g>
</g>
</g>
</g>
</g>
</g>
</g>
<g id="Group_81">
<g id="Group_82">
<g id="Group_83">
<g id="Group_84">
<g id="Group_85">
<g id="Group_86">
<g id="Group_87">
<g id="Group_88">
<path id="Vector_41" d="M71.0147 13.5256C70.8762 13.8134 70.9993 14.168 71.2968 14.3221C71.5943 14.4763 71.9483 14.3684 72.0867 14.0806C72.2252 13.7929 72.1021 13.4383 71.8046 13.2841C71.5071 13.13 71.1532 13.2379 71.0147 13.5256Z" fill="#263238"/>
</g>
</g>
</g>
</g>
</g>
</g>
</g>
<g id="Group_89">
<g id="Group_90">
<g id="Group_91">
<g id="Group_92">
<g id="Group_93">
<g id="Group_94">
<g id="Group_95">
<g id="Group_96">
<path id="Vector_42" d="M71.2762 13.0221C71.3121 13.1249 71.8661 13.0015 72.4611 13.2687C73.0561 13.5257 73.3535 14.0293 73.451 13.983C73.4972 13.9625 73.4869 13.8032 73.3587 13.5822C73.2356 13.3612 72.974 13.0838 72.6047 12.9193C72.2354 12.7549 71.8609 12.7549 71.625 12.8114C71.3737 12.8731 71.2557 12.9758 71.2762 13.0221Z" fill="#263238"/>
</g>
</g>
</g>
</g>
</g>
</g>
</g>
</g>
</g>
<g id="Group_97">
<g id="Group_98">
<g id="Group_99">
<g id="Group_100">
<g id="Group_101">
<g id="Group_102">
<g id="Group_103">
<g id="Group_104">
<path id="Vector_43" d="M67.1575 16.4594C67.1729 16.4286 66.8344 16.1974 66.2753 15.8531C66.1317 15.7708 66.0035 15.6732 66.024 15.5602C66.0394 15.4368 66.1727 15.2981 66.3266 15.1542C66.6344 14.851 66.9524 14.5324 67.2909 14.1984C68.645 12.8315 69.7016 11.6856 69.6452 11.6291C69.5888 11.5726 68.445 12.6363 67.0909 14.0032C66.7626 14.3423 66.4446 14.666 66.1419 14.9744C66.0086 15.1234 65.8239 15.2724 65.7983 15.5345C65.788 15.6681 65.865 15.7965 65.947 15.8685C66.0291 15.9404 66.1163 15.9815 66.1881 16.0175C66.7677 16.3258 67.1421 16.4954 67.1575 16.4594Z" fill="#263238"/>
</g>
</g>
</g>
</g>
</g>
</g>
</g>
</g>
<g id="Group_105">
<g id="Group_106">
<g id="Group_107">
<g id="Group_108">
<g id="Group_109">
<g id="Group_110">
<g id="Group_111">
<g id="Group_112">
<path id="Vector_44" d="M68.7166 17.6523C68.6243 17.6009 68.3319 18.2484 67.5779 18.4591C66.8239 18.6698 66.1725 18.2895 66.1264 18.382C66.1007 18.418 66.2238 18.5773 66.511 18.7109C66.788 18.8496 67.2445 18.9421 67.7062 18.8136C68.1678 18.6852 68.4807 18.3717 68.6192 18.1199C68.7628 17.863 68.7628 17.6677 68.7166 17.6523Z" fill="#263238"/>
</g>
</g>
</g>
</g>
</g>
</g>
</g>
</g>
</g>
</g>
</g>
<g id="Group_113">
<g id="Group_114">
<g id="Group_115">
<g id="Group_116">
<g id="Group_117">
<g id="Group_118">
<g id="Group_119">
<path id="Vector_45" d="M72.1634 10.6275C72.148 10.8177 72.7737 11.0027 73.4354 11.3983C74.1022 11.7786 74.569 12.2359 74.728 12.1332C74.7998 12.0818 74.769 11.8865 74.6151 11.6296C74.4613 11.3726 74.1689 11.0643 73.7739 10.8279C73.379 10.5967 72.9635 10.4888 72.666 10.4785C72.3531 10.4682 72.1685 10.5402 72.1634 10.6275Z" fill="#263238"/>
</g>
</g>
</g>
</g>
</g>
</g>
</g>
<g id="Group_120">
<g id="Group_121">
<g id="Group_122">
<g id="Group_123">
<g id="Group_124">
<g id="Group_125">
<g id="Group_126">
<path id="Vector_46" d="M66.4862 8.67969C66.5324 8.85954 66.9991 8.90579 67.4967 9.11648C67.9993 9.31174 68.3635 9.61492 68.5225 9.51729C68.5943 9.4659 68.5892 9.30147 68.4661 9.09592C68.343 8.89038 68.0916 8.64886 67.748 8.51012C67.4043 8.37137 67.0607 8.3611 66.8247 8.42276C66.5888 8.47928 66.4708 8.59233 66.4862 8.67969Z" fill="#263238"/>
</g>
</g>
</g>
</g>
</g>
</g>
</g>
</g>
</g>
<g id="Group_127">
<g id="Group_128">
<g id="Group_129">
<g id="Group_130">
<g id="Group_131">
<g id="Group_132">
<g id="Group_133">
<g id="Group_134">
<path id="Vector_47" d="M76.6417 17.8682C76.7187 17.8682 79.6424 18.269 78.3754 20.8743C77.1085 23.4796 74.7644 21.6708 74.7952 21.5937C74.8311 21.5166 76.6417 17.8682 76.6417 17.8682Z" fill="#FFBE9D"/>
</g>
</g>
</g>
</g>
</g>
</g>
</g>
<g id="Group_135">
<g id="Group_136">
<g id="Group_137">
<g id="Group_138">
<g id="Group_139">
<g id="Group_140">
<g id="Group_141">
<g id="Group_142">
<path id="Vector_48" d="M76.0725 20.9927C76.0879 20.9876 76.1032 21.0441 76.1597 21.1212C76.2161 21.1931 76.3341 21.2753 76.4931 21.2908C76.8162 21.3216 77.2573 20.9979 77.4984 20.5354C77.6215 20.3041 77.6779 20.0523 77.6882 19.8262C77.7036 19.595 77.642 19.4049 77.5189 19.3124C77.3958 19.2148 77.2573 19.2507 77.1906 19.3072C77.1188 19.3638 77.1137 19.4254 77.0983 19.4203C77.088 19.4254 77.0624 19.3484 77.1342 19.2507C77.1701 19.2045 77.2317 19.1582 77.3137 19.1377C77.4009 19.1171 77.5035 19.1377 77.5958 19.1942C77.7908 19.3072 77.878 19.5796 77.8728 19.8262C77.878 20.0832 77.8164 20.3658 77.6779 20.6279C77.4061 21.1417 76.8983 21.5066 76.4726 21.4295C76.2674 21.3884 76.1391 21.2599 76.093 21.1572C76.0468 21.0595 76.0622 20.9927 76.0725 20.9927Z" fill="#EB996E"/>
</g>
</g>
</g>
</g>
</g>
</g>
</g>
</g>
</g>
</g>
</g>
<g id="Group_143">
<g id="Group_144">
<g id="Group_145">
<path id="Vector_49" d="M78.1494 18.4331C77.7904 18.1556 76.9287 18.2172 76.5901 18.5153C76.2516 18.8133 76.0208 19.2244 75.6823 19.5276C75.3437 19.8308 74.8052 19.9952 74.4461 19.7229C74.1999 19.5327 74.1179 19.1833 74.164 18.875C74.2153 18.5667 74.3743 18.2892 74.5384 18.022C75.2463 16.8606 76.0516 15.7507 76.6517 14.5328C77.2569 13.315 77.657 11.943 77.4775 10.5915C77.298 9.24005 76.4517 7.92456 75.1693 7.47236C74.323 7.16918 73.3792 7.26168 72.5124 7.00988C71.4866 6.71184 70.6197 5.91535 70.235 4.91332C70.1837 4.78485 69.8965 4.32752 69.8965 4.32752C69.9273 4.26585 70.2299 3.73657 70.5376 3.6338C72.8202 2.86301 75.9182 3.74685 77.8109 5.24219C79.7036 6.73754 81.0269 9.14242 81.0526 11.5576C81.0782 13.9727 79.56 16.6345 78.1494 18.4331Z" fill="#263238"/>
</g>
</g>
</g>
</g>
<g id="Group_146">
<path id="Vector_50" d="M78.1747 18.1761C78.8979 16.948 80.0674 16.0539 80.9599 14.9439C81.8523 13.834 82.4679 12.2667 81.8318 10.9923C81.6164 10.5555 81.2676 10.1907 81.083 9.7385C80.8983 9.2863 80.8983 8.78271 80.8316 8.29454C80.6162 6.79406 79.6673 5.42205 78.3491 4.68208C77.4361 4.17336 76.3846 3.96267 75.4562 3.4745C73.9892 2.70371 72.9172 1.27003 71.3784 0.663671C70.8655 0.463264 70.2705 0.36563 69.7832 0.617423C69.296 0.869216 69.0344 1.57835 69.3883 1.99972C69.3267 1.50641 68.6856 1.2392 68.2342 1.4396C67.7828 1.64515 67.552 2.18471 67.5828 2.67802C67.6136 3.17132 67.8598 3.62866 68.1419 4.03975C69.0754 5.38094 70.5065 6.36756 72.0914 6.76323L75.6306 6.48574L78.5337 8.63883L80.6829 12.0663L76.7846 17.1381L78.1747 18.1761Z" fill="#263238"/>
</g>
</g>
</g>
<g id="Rectangle 28" filter="url(#filter0_d_0_1)">
<rect x="81" y="145" width="153" height="46" rx="10" fill="#A990F5"/>
</g>
<g id="menu_6270390 1">
<path id="Vector_51" d="M102 153H94C93.2046 153.001 92.4421 153.317 91.8797 153.88C91.3173 154.442 91.0009 155.205 91 156V164C91.0009 164.795 91.3173 165.558 91.8797 166.12C92.4421 166.683 93.2046 166.999 94 167H102C102.795 166.999 103.558 166.683 104.12 166.12C104.683 165.558 104.999 164.795 105 164V156C104.999 155.205 104.683 154.442 104.12 153.88C103.558 153.317 102.795 153.001 102 153ZM103 164C102.999 164.265 102.894 164.519 102.707 164.707C102.519 164.894 102.265 164.999 102 165H94C93.7349 164.999 93.4809 164.894 93.2935 164.707C93.1061 164.519 93.0005 164.265 93 164V156C93.0005 155.735 93.1061 155.481 93.2935 155.293C93.4809 155.106 93.7349 155.001 94 155H102C102.265 155.001 102.519 155.106 102.707 155.293C102.894 155.481 102.999 155.735 103 156V164Z" fill="white"/>
<path id="Vector_52" d="M102 169H94C93.2046 169.001 92.4421 169.317 91.8797 169.88C91.3173 170.442 91.0009 171.205 91 172V180C91.0009 180.795 91.3173 181.558 91.8797 182.12C92.4421 182.683 93.2046 182.999 94 183H102C102.795 182.999 103.558 182.683 104.12 182.12C104.683 181.558 104.999 180.795 105 180V172C104.999 171.205 104.683 170.442 104.12 169.88C103.558 169.317 102.795 169.001 102 169ZM103 180C102.999 180.265 102.894 180.519 102.707 180.707C102.519 180.894 102.265 180.999 102 181H94C93.7349 180.999 93.4809 180.894 93.2935 180.707C93.1061 180.519 93.0005 180.265 93 180V172C93.0005 171.735 93.1061 171.481 93.2935 171.293C93.4809 171.106 93.7349 171.001 94 171H102C102.265 171.001 102.519 171.106 102.707 171.293C102.894 171.481 102.999 171.735 103 172V180Z" fill="white"/>
</g>
</g>
<defs>
<filter id="filter0_d_0_1" x="62" y="130" width="191" height="84" filterUnits="userSpaceOnUse" color-interpolation-filters="sRGB">
<feFlood flood-opacity="0" result="BackgroundImageFix"/>
<feColorMatrix in="SourceAlpha" type="matrix" values="0 0 0 0 0 0 0 0 0 0 0 0 0 0 0 0 0 0 127 0" result="hardAlpha"/>
<feOffset dy="4"/>
<feGaussianBlur stdDeviation="9.5"/>
<feColorMatrix type="matrix" values="0 0 0 0 0.466667 0 0 0 0 0.576471 0 0 0 0 0.254902 0 0 0 0.3 0"/>
<feBlend mode="normal" in2="BackgroundImageFix" result="effect1_dropShadow_0_1"/>
<feBlend mode="normal" in="SourceGraphic" in2="effect1_dropShadow_0_1" result="shape"/>
</filter>
<clipPath id="clip0_0_1">
<rect width="1440" height="1189" fill="white" transform="translate(-1152 -152)"/>
</clipPath>
</defs>
</svg>
