<svg width="36" height="36" viewBox="0 0 36 36" fill="none" xmlns="http://www.w3.org/2000/svg">
<g id="book_3145740 1" clip-path="url(#clip0_177_10709)">
<g id="Page-1">
<g id="002---Open-Book">
<path id="Shape" d="M35.4558 4.99532C35.1161 4.77337 34.6872 4.73815 34.3158 4.90172L34.1502 4.97492L32.7102 3.17492C32.3012 2.65948 31.6428 2.40939 30.9948 2.52332C30.2514 2.65652 29.5182 2.81972 28.7994 3.00332V0.599718C28.7995 0.42116 28.7201 0.251817 28.5828 0.137718C28.445 0.0245477 28.2644 -0.0222012 28.089 0.00991835C21.5148 1.24232 18.9702 4.97372 18 7.36172C17.0268 4.96952 14.4816 1.24172 7.9104 0.00991835C7.73502 -0.022034 7.55446 0.0246969 7.4166 0.137718C7.27925 0.251817 7.19986 0.42116 7.2 0.599718V3.00692C6.48 2.82152 5.748 2.65832 5.0046 2.52692C4.35648 2.41475 3.69878 2.66504 3.2892 3.17972L1.8492 4.97972L1.6836 4.90712C1.31342 4.74411 0.886028 4.77855 0.546732 4.99874C0.207437 5.21894 0.00189909 5.59524 0 5.99972V28.6893C9.5118e-05 29.165 0.281101 29.5956 0.7164 29.7873L14.5164 35.8593C14.8518 36.011 15.2396 35.9927 15.5592 35.8101C15.7502 35.9334 15.9727 35.9992 16.2 35.9997H19.8C20.0271 35.9992 20.2493 35.9336 20.4402 35.8107C20.6113 35.9064 20.8034 35.9583 20.9994 35.9619C21.1661 35.9618 21.331 35.9271 21.4836 35.8599L35.2836 29.7879C35.7191 29.5962 36.0001 29.1652 36 28.6893V5.99972C36.0005 5.59434 35.7956 5.2163 35.4558 4.99532ZM31.2066 3.70652C31.4215 3.67237 31.6381 3.75649 31.7736 3.92672L33.0138 5.47532L20.5158 10.9743C20.4984 10.9815 20.4858 10.9953 20.4684 11.0037C20.2709 10.8706 20.0382 10.7996 19.8 10.7997H18.6V9.64352V9.62132C18.8526 8.77592 23.8404 5.02412 31.2066 3.70652ZM19.8 11.9997V12.0723V14.3997H16.2V11.9997H19.8ZM16.2 15.5997H19.8V16.7997H16.2V15.5997ZM16.2 17.9997H19.8V28.7997H16.2V17.9997ZM16.2 29.9997H19.8V31.1997H16.2V29.9997ZM27.6 1.33652V3.34052C24.6589 4.18363 21.8755 5.50225 19.3602 7.24412C20.34 5.22572 22.5708 2.48012 27.6 1.33652ZM8.4 1.33652C13.4256 2.47652 15.6558 5.22152 16.638 7.24292C14.1232 5.50158 11.3404 4.18337 8.4 3.34052V1.33652ZM4.2264 3.92672C4.36198 3.7566 4.57854 3.6725 4.7934 3.70652C12.1464 5.02172 17.1282 8.76212 17.3934 9.58232L17.4024 9.64232V10.7997H16.2C15.9618 10.7996 15.7291 10.8706 15.5316 11.0037C15.5142 10.9953 15.501 10.9815 15.4836 10.9737L2.9862 5.47532L4.2264 3.92672ZM1.2 28.6893V5.99972L15 12.0717V34.7613L1.2 28.6893ZM16.2 34.7997V32.3997H19.8V34.7997H16.2ZM21 34.7613V12.0723L34.8 5.99972V28.6893L21 34.7613Z" fill="white"/>
<path id="Shape_2" d="M33.3218 10.2929C33.1484 10.1826 32.9306 10.1688 32.7446 10.2563L22.5446 15.0563C22.3343 15.1553 22.2001 15.3668 22.2002 15.5993V21.5993C22.2001 21.8047 22.3052 21.9959 22.4787 22.106C22.6522 22.2161 22.8699 22.2298 23.0558 22.1423L33.2558 17.3423C33.4661 17.2432 33.6003 17.0317 33.6002 16.7993V10.7993C33.6002 10.5939 33.4951 10.4029 33.3218 10.2929ZM32.4002 16.4183L23.4002 20.6537V15.9803L32.4002 11.7449V16.4183Z" fill="white"/>
<path id="Shape_3" d="M13.4555 15.0593L3.2555 10.2593C3.0701 10.172 2.85296 10.1854 2.67966 10.2948C2.50636 10.4041 2.40087 10.5944 2.3999 10.7993V16.7993C2.39984 17.0317 2.53402 17.2433 2.7443 17.3423L12.9443 22.1423C13.0243 22.1797 13.1116 22.1992 13.1999 22.1993C13.5313 22.1993 13.7999 21.9307 13.7999 21.5993V15.5993C13.7988 15.368 13.6648 15.1579 13.4555 15.0593ZM12.5999 20.6537L3.5999 16.4183V11.7449L12.5999 15.9803V20.6537Z" fill="white"/>
<path id="Shape_4" d="M13.4557 24.0593L3.25566 19.2593C3.06166 19.168 2.83369 19.1871 2.65761 19.3094C2.48153 19.4318 2.38409 19.6388 2.40201 19.8524C2.41992 20.0661 2.55046 20.254 2.74446 20.3453L12.9445 25.1453C13.2443 25.2865 13.6019 25.1578 13.7431 24.8579C13.8842 24.558 13.7555 24.2005 13.4557 24.0593Z" fill="white"/>
<path id="Shape_5" d="M12.2401 26.4856L4.46706 22.8256C4.27189 22.7284 4.03936 22.7448 3.8597 22.8683C3.68003 22.9918 3.58151 23.2031 3.60237 23.4201C3.62322 23.6371 3.76017 23.8258 3.96006 23.9128L11.7325 27.5728C11.9271 27.6693 12.1587 27.653 12.3379 27.5303C12.5172 27.4076 12.6161 27.1976 12.5965 26.9812C12.577 26.7649 12.442 26.576 12.2437 26.4874L12.2401 26.4856Z" fill="white"/>
<path id="Shape_6" d="M32.7443 19.2594L22.5443 24.0594C22.3503 24.1508 22.2197 24.3386 22.2018 24.5523C22.1839 24.766 22.2813 24.973 22.4574 25.0953C22.6335 25.2176 22.8615 25.2368 23.0555 25.1454L33.2555 20.3454C33.5554 20.2043 33.684 19.8467 33.5429 19.5468C33.4017 19.2469 33.0442 19.1183 32.7443 19.2594Z" fill="white"/>
<path id="Shape_7" d="M31.5311 22.8282L23.7599 26.4864C23.4672 26.6315 23.3444 26.9841 23.4836 27.2796C23.6228 27.5751 23.9728 27.705 24.2711 27.5718L32.0435 23.9118C32.2438 23.8245 32.3808 23.6353 32.4012 23.4177C32.4216 23.2002 32.3221 22.9888 32.1416 22.8658C31.961 22.7428 31.7278 22.7277 31.5329 22.8264L31.5311 22.8282Z" fill="white"/>
</g>
</g>
</g>
<defs>
<clipPath id="clip0_177_10709">
<rect width="36" height="36" fill="white"/>
</clipPath>
</defs>
</svg>
