<svg width="36" height="36" viewBox="0 0 36 36" fill="none" xmlns="http://www.w3.org/2000/svg">
<g id="note_14149629 (1) 3">
<path id="Vector" d="M18.8325 7.92C19.2825 8.90438 20.2781 9.5625 21.375 9.5625C22.9275 9.5625 24.1875 8.3025 24.1875 6.75C24.1875 5.1975 22.9275 3.9375 21.375 3.9375C21.1669 3.9375 20.97 3.96562 20.7787 4.005C20.61 3.96562 20.43 3.9375 20.25 3.9375C19.0069 3.9375 18 4.94438 18 6.1875C18 6.89062 18.3319 7.50937 18.8325 7.92ZM23.0625 6.75C23.0625 7.67812 22.3031 8.4375 21.375 8.4375C21.1894 8.4375 21.0094 8.40375 20.8406 8.3475C21.7912 8.08313 22.5 7.2225 22.5 6.1875C22.5 5.90062 22.4381 5.625 22.3425 5.37188C22.7756 5.67563 23.0625 6.18187 23.0625 6.75ZM20.25 5.0625C20.8688 5.0625 21.375 5.56875 21.375 6.1875C21.375 6.80625 20.8688 7.3125 20.25 7.3125C19.6313 7.3125 19.125 6.80625 19.125 6.1875C19.125 5.56875 19.6313 5.0625 20.25 5.0625Z" fill="white"/>
<path id="Vector_2" d="M30.375 17.128V4.97804C30.375 4.09491 29.6381 3.37491 28.7381 3.37491H24.3788L23.8331 2.13179C23.4675 1.28804 22.4775 0.899914 21.6338 1.26554L16.7738 3.37491H7.26188C6.36188 3.37491 5.625 4.09491 5.625 4.97804V8.22366L3.25688 9.25304C2.84625 9.43304 2.53125 9.75929 2.36813 10.1755C2.205 10.5918 2.21063 11.0474 2.39063 11.458L5.625 18.8774V31.0274C5.625 31.9105 6.36188 32.6305 7.26188 32.6305H11.6213L12.1669 33.8737C12.4425 34.5037 13.0556 34.8749 13.7025 34.8749C13.9219 34.8749 14.1525 34.8299 14.3663 34.7343L19.2263 32.6249H28.7381C29.6381 32.6249 30.375 31.9049 30.375 31.0218V27.7762L32.7431 26.7468C33.1538 26.5668 33.4688 26.2405 33.6319 25.8243C33.795 25.408 33.7894 24.9524 33.6094 24.5418L30.375 17.1224V17.128ZM28.7381 4.49991C29.0194 4.49991 29.25 4.71366 29.25 4.97804V14.5462L24.8681 4.49991H28.7381ZM6.75 4.97804C6.75 4.71366 6.98063 4.49991 7.26188 4.49991H14.1863L6.75 7.73429V4.97804ZM7.26188 31.4999C6.98063 31.4999 6.75 31.2862 6.75 31.0218V21.4537L11.1319 31.4999H7.26188ZM29.25 31.0218C29.25 31.2862 29.0194 31.4999 28.7381 31.4999H21.8138L29.25 28.2655V31.0218ZM32.5856 25.4137C32.5294 25.5487 32.4281 25.6555 32.2931 25.7174L13.9163 33.7049C13.6406 33.823 13.32 33.6993 13.1963 33.4237L3.42 11.0024C3.36375 10.8674 3.35813 10.7212 3.41438 10.5805C3.47063 10.4455 3.57188 10.3387 3.70688 10.2768L22.0837 2.29491C22.1569 2.26679 22.23 2.24991 22.3031 2.24991C22.5169 2.24991 22.7138 2.37366 22.8038 2.57616L32.58 24.9918C32.6362 25.1268 32.6419 25.273 32.5856 25.4137Z" fill="white"/>
<path id="Vector_3" d="M9.17725 10.3145L17.4148 6.73917L17.8625 7.77079L9.625 11.3461L9.17725 10.3145Z" fill="white"/>
<path id="Vector_4" d="M7.44678 14.7012L19.7953 9.3416L20.2431 10.3732L7.89453 15.7328L7.44678 14.7012Z" fill="white"/>
<path id="Vector_5" d="M8.79443 17.75L24.1037 11.0887L24.5526 12.1203L9.24331 18.7816L8.79443 17.75Z" fill="white"/>
<path id="Vector_6" d="M10.1274 20.8066L25.4368 14.1453L25.8856 15.177L10.5763 21.8383L10.1274 20.8066Z" fill="white"/>
<path id="Vector_7" d="M11.4609 23.8574L26.7703 17.1961L27.2191 18.2277L11.9098 24.889L11.4609 23.8574Z" fill="white"/>
<path id="Vector_8" d="M12.7959 26.9189L28.1052 20.2576L28.5541 21.2893L13.2448 27.9506L12.7959 26.9189Z" fill="white"/>
<path id="Vector_9" d="M14.1025 29.9844L29.4119 23.3398L29.8596 24.3714L14.5503 31.016L14.1025 29.9844Z" fill="white"/>
</g>
</svg>
