<svg width="60" height="60" viewBox="0 0 60 60" fill="none" xmlns="http://www.w3.org/2000/svg">
<g id="Group">
<g id="Group_2">
<g id="Group_3">
<path id="Vector" d="M52.3593 50.9958L49.0198 53.0006H34.3626L32.4122 50.1949C32.4122 45.6021 32.0397 44.556 32.3996 42.1798C32.5183 41.4067 31.2974 39.0452 31.969 38.642C32.6543 38.2314 33.3593 37.8664 34.062 37.5436C34.0644 37.5436 34.0669 37.5423 34.0694 37.5411C34.6779 37.2603 35.2841 37.013 35.8741 36.7915C38.2293 35.9071 40.3221 35.4704 41.2227 35.3083C41.532 35.2527 41.8486 35.2527 42.1592 35.3083C43.0585 35.4704 45.1514 35.9071 47.5066 36.7915C48.7806 37.2677 50.1326 37.8751 51.4116 38.642C52.0833 39.0452 50.6684 41.4067 50.7871 42.1798C51.1471 44.556 52.3593 46.403 52.3593 50.9958Z" fill="#5766CB"/>
<path id="Vector_2" d="M34.0689 37.541C33.5494 37.9765 33.1956 38.71 33.1041 39.5374C32.8233 42.0967 32.2296 48.0527 32.2296 53.0005H29.606C29.606 48.4077 32.0391 44.5559 32.3991 42.1796C32.5178 41.4066 31.297 39.0451 31.9686 38.6419C32.6539 38.2312 33.3589 37.8663 34.0615 37.5435C34.064 37.5436 34.0665 37.5423 34.0689 37.541Z" fill="#3D4FC3"/>
<path id="Vector_3" d="M37.8799 42.3622C37.8799 42.3622 38.5304 43.5404 39.5813 44.8032C40.1723 45.5134 40.89 44.7022 41.6899 45.2713C42.4897 44.7022 43.2072 45.5135 43.7982 44.8035C44.8494 43.5407 45.4999 42.3622 45.4999 42.3622V37.541H37.8799V42.3622Z" fill="#ECF4FF"/>
<path id="Vector_4" d="M43.7979 44.803C43.2072 45.5132 42.4894 46.2501 41.6897 46.8195C40.8899 46.2501 40.1723 45.5132 39.5815 44.803L41.6897 42.1572L43.7979 44.803Z" fill="#D57080"/>
<path id="Vector_5" d="M37.8799 39.1128L41.6901 42.7759L45.5004 39.1128L41.3735 36.4795" fill="#D57080"/>
<path id="Vector_6" d="M35.2737 46.7508C34.946 48.0979 34.3621 50.8043 34.3621 53.0012H29.606C29.606 48.4084 30.363 42.8803 30.723 40.5042C30.8417 39.7311 31.297 39.0458 31.9686 38.6426C32.4028 38.8665 32.7837 39.1349 33.1177 39.4342C34.7245 40.8777 35.249 43.0535 35.4173 44.4772C35.5075 45.2379 35.4556 46.0073 35.2737 46.7508Z" fill="#ECF4FF"/>
<path id="Vector_7" d="M53.7745 53.0004H49.0195C49.0195 50.8045 48.4353 48.0974 48.1073 46.7503C47.9263 46.0068 47.8741 45.2379 47.9639 44.4778C48.1669 42.7583 48.8905 39.9398 51.4114 38.6426C52.0833 39.0457 52.5387 39.7303 52.657 40.5045C53.0174 42.8803 53.7745 48.4085 53.7745 53.0004Z" fill="#ECF4FF"/>
<g id="Group_4">
<path id="Vector_8" d="M33.1177 39.4342C33.1128 39.4689 33.1078 39.5034 33.1041 39.5381C32.8233 42.0974 32.2296 48.0534 32.2296 53.0012H29.606C29.606 48.4084 30.363 42.8803 30.723 40.5042C30.8417 39.7311 31.297 39.0458 31.9686 38.6426C32.4028 38.8664 32.7837 39.1349 33.1177 39.4342Z" fill="#DDEAFB"/>
<path id="Vector_9" d="M47.5063 36.7913L45.5004 42.3621L41.6902 38.6991L37.8799 42.3621L35.874 36.7913C38.2287 35.9072 40.322 35.471 41.222 35.309C41.5323 35.2525 41.848 35.2525 42.1583 35.309C43.0583 35.471 45.1516 35.9072 47.5063 36.7913Z" fill="#DDEAFB"/>
</g>
</g>
<path id="Vector_10" d="M55.9173 20.9027L49.4614 28.2196L35.0322 21.1991L26.5117 21.3203C26.5117 21.3203 22.2325 15.0635 23.5294 8.94844C24.8264 2.83477 32.7014 6.54012 32.7014 6.54012C32.7014 6.54012 36.985 0 42.6356 0C51.0319 0 54.5663 8.02254 58.3651 5.15121C58.3651 5.15121 63.3468 14.5685 55.9173 20.9027Z" fill="#9D6B6B"/>
<path id="Vector_11" d="M35.0322 21.1993L26.5117 21.3204C26.5117 21.3204 22.2325 15.0637 23.5294 8.94859C24.8264 2.83492 32.7014 6.54027 32.7014 6.54027C32.7014 6.54027 30.0009 11.0547 34.895 14.6577C36.4737 15.8188 36.17 18.3309 35.0322 21.1993Z" fill="#8B5E5E"/>
<path id="Vector_12" d="M44.5827 30.9746V35.8055C44.5827 37.4028 43.2875 38.698 41.6902 38.698C40.0921 38.698 38.7969 37.4028 38.7969 35.8055V30.9746H44.5827Z" fill="#FFDDCE"/>
<path id="Vector_13" d="M42.6351 38.5405C42.3392 38.6423 42.0214 38.698 41.6907 38.698C40.0926 38.698 38.7974 37.4028 38.7974 35.8055V30.9746H40.6862V35.8055C40.6862 37.0729 41.501 38.1496 42.6351 38.5405Z" fill="#FFCBBE"/>
<path id="Vector_14" d="M29.6051 26.9516C27.5194 26.9516 25.8286 25.2608 25.8286 23.1751C25.8286 22.888 25.8606 22.6085 25.9213 22.3398C26.4113 20.17 29.6051 20.5259 29.6051 22.7503H53.7746C53.7746 20.5259 56.9684 20.17 57.4583 22.3398C57.519 22.6085 57.551 22.8881 57.551 23.1751C57.551 25.2608 55.8603 26.9516 53.7746 26.9516" fill="#FFCBBE"/>
<path id="Vector_15" d="M53.7524 25.3218C53.5782 25.3218 53.4022 25.2701 53.2481 25.1626C52.8502 24.8848 52.7547 24.3341 53.0324 23.936C53.0638 23.8912 53.3521 23.4878 53.822 23.1518C54.54 22.6384 55.3448 22.521 56.0875 22.8207C56.5377 23.0023 56.7553 23.5144 56.5737 23.9645C56.392 24.4146 55.8798 24.6325 55.4298 24.4507C54.9769 24.2679 54.4747 24.9408 54.4698 24.9476C54.2995 25.1918 54.0284 25.3218 53.7524 25.3218Z" fill="#EAAC9D"/>
<path id="Vector_16" d="M38.7969 30.9746H44.5827V35.4252H38.7969V30.9746Z" fill="#FFCBBE"/>
<path id="Vector_17" d="M53.7748 18.3147V25.0856C53.7748 29.9505 49.8314 33.8939 44.9665 33.8939H38.4133C33.5483 33.8939 29.605 29.9505 29.605 25.0856V18.3147C32.726 18.3147 35.257 15.7851 35.257 12.6641C35.257 12.6641 35.3023 12.7064 35.3915 12.7838C36.338 13.6003 42.3041 18.3147 53.7748 18.3147Z" fill="#FFDDCE"/>
<path id="Vector_18" d="M44.1997 33.8939H38.4133C33.5483 33.8939 29.605 29.9505 29.605 25.0856V18.3147C32.726 18.3147 35.2571 15.7851 35.2571 12.6641C35.2571 12.6641 35.3023 12.7064 35.3915 12.7838V25.0856C35.3915 29.9505 39.3348 33.8939 44.1997 33.8939Z" fill="#FFCBBE"/>
<g id="Group_5">
<path id="Vector_19" d="M49.6623 26.0619C50.7549 26.0619 51.6406 25.5234 51.6406 24.8591C51.6406 24.1948 50.7549 23.6562 49.6623 23.6562C48.5698 23.6562 47.6841 24.1948 47.6841 24.8591C47.6841 25.5234 48.5698 26.0619 49.6623 26.0619Z" fill="#EAAFA5"/>
<path id="Vector_20" d="M33.718 26.0619C34.8105 26.0619 35.6962 25.5234 35.6962 24.8591C35.6962 24.1948 34.8105 23.6562 33.718 23.6562C32.6254 23.6562 31.7397 24.1948 31.7397 24.8591C31.7397 25.5234 32.6254 26.0619 33.718 26.0619Z" fill="#EAAFA5"/>
</g>
<path id="Vector_21" d="M41.6905 29.1304C40.8304 29.1304 40.0219 28.7955 39.4137 28.1874C39.0515 27.825 39.0515 27.2377 39.4139 26.8753C39.776 26.513 40.3634 26.5131 40.7259 26.8753C40.9836 27.133 41.326 27.2748 41.6905 27.2748C42.0548 27.2748 42.3973 27.1329 42.6552 26.8752C43.0174 26.5129 43.6048 26.513 43.9672 26.8752C44.3294 27.2376 44.3294 27.8249 43.9671 28.1873C43.359 28.7955 42.5505 29.1304 41.6905 29.1304Z" fill="#D57080"/>
</g>
<g id="Group_6">
<path id="Vector_22" d="M15.625 0C24.2543 0 31.2497 6.99539 31.2497 15.6246V30.4548C31.2497 34.646 28.5808 38.3719 24.6126 39.7206L15.6251 42.7752L6.63764 39.7206C2.66932 38.3719 0.000488283 34.646 0.000488283 30.4548V15.6246C0.000371095 6.99539 6.99576 0 15.625 0Z" fill="#E4936B"/>
<path id="Vector_23" d="M11.8172 39.7207L15.6247 42.7751L6.63785 39.7207C2.66953 38.3723 0 34.6457 0 30.4553V15.6246C0 6.99539 6.99539 0 15.6246 0C11.9691 0 9.00527 6.99539 9.00527 15.6246V30.4553C9.00539 34.6457 10.1365 38.3723 11.8172 39.7207Z" fill="#E27D47"/>
<g id="Group_7">
<path id="Vector_24" d="M26.2943 50.9958L22.9549 53.0006H8.29763L6.34727 50.1949C6.34727 45.6021 5.97474 44.556 6.33462 42.1798C6.45333 41.4067 5.23247 39.0452 5.90407 38.642C6.58938 38.2314 7.29438 37.8664 7.99704 37.5436C7.9995 37.5436 8.00196 37.5423 8.00442 37.5411C8.61298 37.2603 9.21919 37.013 9.80911 36.7915C12.1643 35.9071 14.2572 35.4704 15.1578 35.3083C15.467 35.2527 15.7837 35.2527 16.0942 35.3083C16.9935 35.4704 19.0865 35.9071 21.4416 36.7915C22.7157 37.2677 24.0677 37.8751 25.3466 38.642C26.0184 39.0452 24.6034 41.4067 24.7222 42.1798C25.0822 44.556 26.2943 46.403 26.2943 50.9958Z" fill="#5766CB"/>
<path id="Vector_25" d="M8.00447 37.542C7.48498 37.9775 7.13119 38.7109 7.03967 39.5384C6.75889 42.0977 6.1651 48.0537 6.1651 53.0015H3.5415C3.5415 48.4087 5.97467 44.5568 6.33467 42.1806C6.45338 41.4075 5.23252 39.0461 5.90412 38.6428C6.58943 38.2322 7.29443 37.8673 7.99709 37.5445C7.99943 37.5445 8.00189 37.5432 8.00447 37.542Z" fill="#3D4FC3"/>
<path id="Vector_26" d="M11.8154 42.3622C11.8154 42.3622 12.4659 43.5404 13.5169 44.8032C14.1079 45.5134 14.8255 44.7022 15.6254 45.2713C16.4252 44.7022 17.1428 45.5135 17.7338 44.8035C18.7849 43.5407 19.4354 42.3622 19.4354 42.3622V37.541H11.8154V42.3622Z" fill="#ECF4FF"/>
<path id="Vector_27" d="M17.7335 44.803C17.1428 45.5131 16.425 46.2501 15.6253 46.8195C14.8255 46.2501 14.1078 45.5132 13.5171 44.803L15.6253 42.1572L17.7335 44.803Z" fill="#D57080"/>
<path id="Vector_28" d="M11.8154 39.1128L15.6255 42.7759L19.4358 39.1128L15.3089 36.4795" fill="#D57080"/>
<path id="Vector_29" d="M9.20916 46.7508C8.88139 48.0979 8.29756 50.8043 8.29756 53.0012H3.5415C3.5415 48.4084 4.29854 42.8803 4.65854 40.5042C4.77725 39.7311 5.23252 39.0458 5.90412 38.6426C6.3383 38.8665 6.71928 39.1349 7.05326 39.4342C8.66002 40.8777 9.18455 43.0535 9.35283 44.4772C9.44307 45.2379 9.39104 46.0073 9.20916 46.7508Z" fill="#ECF4FF"/>
<path id="Vector_30" d="M27.7096 53.0004H22.9546C22.9546 50.8045 22.3704 48.0974 22.0424 46.7503C21.8613 46.0068 21.8092 45.2379 21.899 44.4778C22.1019 42.7583 22.8256 39.9398 25.3465 38.6426C26.0183 39.0457 26.4737 39.7303 26.5921 40.5045C26.9524 42.8803 27.7096 48.4085 27.7096 53.0004Z" fill="#ECF4FF"/>
<g id="Group_8">
<path id="Vector_31" d="M7.05314 39.4342C7.04822 39.4689 7.04318 39.5034 7.03955 39.5381C6.75877 42.0974 6.16498 48.0534 6.16498 53.0012H3.5415C3.5415 48.4084 4.29854 42.8803 4.65854 40.5042C4.77725 39.7311 5.23252 39.0458 5.90412 38.6426C6.33818 38.8664 6.71928 39.1349 7.05314 39.4342Z" fill="#DDEAFB"/>
<path id="Vector_32" d="M21.4413 36.7913L19.4355 42.3621L15.6252 38.6991L11.815 42.3621L9.80908 36.7913C12.1637 35.9072 14.2571 35.471 15.1571 35.309C15.4674 35.2525 15.7831 35.2525 16.0934 35.309C16.9935 35.471 19.0868 35.9072 21.4413 36.7913Z" fill="#DDEAFB"/>
</g>
</g>
<path id="Vector_33" d="M18.5177 30.9746V35.8055C18.5177 37.4028 17.2226 38.698 15.6253 38.698C14.0272 38.698 12.7319 37.4028 12.7319 35.8055V30.9746H18.5177Z" fill="#FFDDCE"/>
<path id="Vector_34" d="M16.5702 38.5405C16.2743 38.6423 15.9565 38.698 15.6258 38.698C14.0277 38.698 12.7324 37.4028 12.7324 35.8055V30.9746H14.6212V35.8055C14.6214 37.0728 15.4361 38.1496 16.5702 38.5405Z" fill="#FFCBBE"/>
<path id="Vector_35" d="M12.7319 30.9746H18.5177V35.4252H12.7319V30.9746Z" fill="#FFCBBE"/>
<path id="Vector_36" d="M27.7094 18.448V25.086C27.7094 29.95 23.7663 33.8939 18.9014 33.8939H12.348C7.48399 33.8939 3.54004 29.9508 3.54004 25.086V18.5237C5.0398 18.4803 7.10359 18.2243 9.32676 17.7726C13.8827 16.8464 19.1123 15.096 21.5451 12.6631C21.545 12.6631 23.9516 17.5811 27.7094 18.448Z" fill="#FFDDCE"/>
<path id="Vector_37" d="M18.1347 33.8938H12.348C7.48399 33.8938 3.54004 29.9507 3.54004 25.0859V18.5236C5.0398 18.4802 7.10359 18.2242 9.32676 17.7725V25.0859C9.32676 29.9499 13.2698 33.8938 18.1347 33.8938Z" fill="#FFCBBE"/>
<g id="Group_9">
<path id="Vector_38" d="M22.7439 26.9154C23.8364 26.9154 24.7221 26.3769 24.7221 25.7126C24.7221 25.0483 23.8364 24.5098 22.7439 24.5098C21.6513 24.5098 20.7656 25.0483 20.7656 25.7126C20.7656 26.3769 21.6513 26.9154 22.7439 26.9154Z" fill="#EAAFA5"/>
<path id="Vector_39" d="M8.50705 26.9154C9.5996 26.9154 10.4853 26.3769 10.4853 25.7126C10.4853 25.0483 9.5996 24.5098 8.50705 24.5098C7.4145 24.5098 6.52881 25.0483 6.52881 25.7126C6.52881 26.3769 7.4145 26.9154 8.50705 26.9154Z" fill="#EAAFA5"/>
</g>
<g id="Group_10">
<path id="Vector_40" d="M36.0236 19.1621C35.3924 19.1621 34.8789 20.0132 34.8789 21.0595C34.8789 22.1057 35.3924 22.9569 36.0236 22.9569C36.6548 22.9569 37.1682 22.1057 37.1682 21.0595C37.1682 20.0132 36.6548 19.1621 36.0236 19.1621Z" fill="#2B4D66"/>
<path id="Vector_41" d="M47.357 22.9569C47.9891 22.9569 48.5015 22.1074 48.5015 21.0595C48.5015 20.0116 47.9891 19.1621 47.357 19.1621C46.7248 19.1621 46.2124 20.0116 46.2124 21.0595C46.2124 22.1074 46.7248 22.9569 47.357 22.9569Z" fill="#2B4D66"/>
<path id="Vector_42" d="M10.1488 20.125C10.1092 20.125 8.77922 20.1351 8.72285 20.1354C8.34586 20.1354 8.03906 20.4421 8.03906 20.8192C8.03906 21.1962 8.34586 21.503 8.72285 21.503H9.0348C9.00434 21.6766 8.98887 21.8563 8.98887 22.0379C8.98887 23.0925 9.5093 23.9507 10.1489 23.9507C10.7886 23.9507 11.3089 23.0927 11.3089 22.0379C11.3089 20.983 10.7884 20.125 10.1488 20.125Z" fill="#2B4D66"/>
<path id="Vector_43" d="M22.5266 20.1354C22.464 20.135 21.0532 20.125 21.0136 20.125C20.3738 20.125 19.8535 20.983 19.8535 22.0379C19.8535 23.0927 20.3739 23.9507 21.0136 23.9507C21.6532 23.9507 22.1736 23.0927 22.1736 22.0379C22.1736 21.8563 22.1581 21.6766 22.1277 21.503H22.5266C22.9036 21.503 23.2104 21.1963 23.2104 20.8192C23.2102 20.4422 22.9036 20.1355 22.5266 20.1354Z" fill="#2B4D66"/>
</g>
<path id="Vector_44" d="M15.625 29.147C14.7952 29.147 14.015 28.8239 13.4284 28.2371C13.0662 27.8748 13.0662 27.2874 13.4285 26.9251C13.7909 26.5627 14.3782 26.5629 14.7405 26.9251C14.9768 27.1613 15.2909 27.2915 15.6251 27.2915C15.9593 27.2915 16.2734 27.1614 16.5097 26.9251C16.8719 26.5627 17.4594 26.5627 17.8218 26.9251C18.1841 27.2874 18.1841 27.8748 17.8218 28.2371C17.2348 28.8239 16.4548 29.147 15.625 29.147Z" fill="#D57080"/>
</g>
<path id="Vector_45" d="M3.76709 52.9502H54.756V59.5566H3.76709V52.9502Z" fill="#8B5E5E"/>
<path id="Vector_46" d="M56.1577 54.2699H2.36582C1.6293 54.2699 1.03223 53.6728 1.03223 52.9363V51.2408C1.03223 50.5043 1.6293 49.9072 2.36582 49.9072H56.1577C56.8942 49.9072 57.4913 50.5043 57.4913 51.2408V52.9363C57.4913 53.6728 56.8942 54.2699 56.1577 54.2699Z" fill="#9D6B6B"/>
<path id="Vector_47" d="M4.94231 54.27H2.3657C1.62965 54.27 1.03223 53.6726 1.03223 52.9354V51.2407C1.03223 50.5035 1.62965 49.9072 2.3657 49.9072H4.94231C4.20637 49.9072 3.60883 50.5035 3.60883 51.2407V52.9354C3.60883 53.6725 4.20625 54.27 4.94231 54.27Z" fill="#8B5E5E"/>
</g>
</svg>
