<svg width="80" height="80" viewBox="0 0 80 80" fill="none" xmlns="http://www.w3.org/2000/svg">
<g id="Group 1171277948">
<circle id="Ellipse 18" cx="40" cy="40" r="39" stroke="#A990F5" stroke-width="2"/>
<g id="Group">
<g id="Group_2">
<g id="Group_3">
<g id="Group_4">
<path id="Vector" d="M51.6333 49.1349H49.7181L42.8994 54.5753L39.5235 50.6879L36.1476 54.5753L29.3288 49.1349H27.4171C24.6016 49.1349 22.3188 51.4174 22.3188 54.2332V69.4599H56.7316V54.2332C56.7316 51.4174 54.4489 49.1349 51.6333 49.1349Z" fill="#E0EBFC"/>
</g>
</g>
</g>
<g id="Group_5">
<g id="Group_6">
<path id="Vector_2" d="M25.8109 28.012C23.4293 27.964 21.54 29.8611 21.54 32.1541C21.54 34.6029 23.6778 36.5397 26.173 36.2758C27.5884 42.2888 33.0274 46.7686 39.5251 46.7686C46.0233 46.7686 51.4621 42.2885 52.8772 36.2758C55.3689 36.5394 57.5102 34.6061 57.5102 32.1541C57.5102 29.8597 55.6193 27.9637 53.2393 28.012V26.7279C53.2393 25.7463 53.1318 24.7898 52.9323 23.8673C52.6271 25.87 50.9026 27.4063 48.8146 27.4063H29.4017C28.3704 27.3264 27.0545 27.0523 26.2694 26.2305C26.0607 26.012 25.6948 26.1708 25.7137 26.4722L25.8109 28.012Z" fill="#F9CFCF"/>
</g>
</g>
<g id="Group_7">
<g id="Group_8">
<path id="Vector_3" d="M39.5238 40.2716C38.9656 40.2716 38.4784 40.206 38.0347 40.071C37.2985 39.8471 36.6531 39.4704 36.1684 38.9813C35.9583 38.7696 35.9596 38.4277 36.1716 38.2176C36.3833 38.0078 36.7252 38.0089 36.9353 38.2208C37.2948 38.583 37.7836 38.8654 38.349 39.0375C38.6893 39.1409 39.0736 39.1914 39.5238 39.1914C39.9739 39.1914 40.3582 39.1409 40.6982 39.0375C41.264 38.8654 41.753 38.583 42.1122 38.2208C42.3223 38.0089 42.6642 38.0078 42.8759 38.2176C43.0879 38.4277 43.0892 38.7696 42.8791 38.9813C42.3944 39.4704 41.7487 39.8471 41.0125 40.071C40.5691 40.206 40.0822 40.2716 39.5238 40.2716Z" fill="#3762CC"/>
</g>
</g>
<g id="Group_9">
<g id="Group_10">
<path id="Vector_4" d="M46.6455 34.7126C45.7838 34.7126 45.0854 34.0142 45.0854 33.1525V31.4884C45.0854 30.6267 45.7838 29.9283 46.6455 29.9283C47.5073 29.9283 48.2056 30.6267 48.2056 31.4884V33.1525C48.2056 34.0142 47.507 34.7126 46.6455 34.7126Z" fill="#3762CC"/>
</g>
</g>
<g id="Group_11">
<g id="Group_12">
<path id="Vector_5" d="M32.4019 34.7126C31.5401 34.7126 30.8418 34.0142 30.8418 33.1525V31.4884C30.8418 30.6267 31.5401 29.9283 32.4019 29.9283C33.2636 29.9283 33.962 30.6267 33.962 31.4884V33.1525C33.962 34.0142 33.2633 34.7126 32.4019 34.7126Z" fill="#3762CC"/>
</g>
</g>
<g id="Group_13">
<g id="Group_14">
<path id="Vector_6" d="M34.135 47.1202L39.5233 50.6879L36.1474 54.5752L29.3286 49.1348L34.135 47.1202Z" fill="#E0EBFC"/>
</g>
</g>
<g id="Group_15">
<g id="Group_16">
<path id="Vector_7" d="M44.9117 47.1202L39.5234 50.6879L42.8991 54.5752L49.7181 49.1348L44.9117 47.1202Z" fill="#E0EBFC"/>
</g>
</g>
<g id="Group_17">
<g id="Group_18">
<path id="Vector_8" d="M39.5235 50.6879L36.792 53.8334L37.6135 56.7421H41.4336L42.2551 53.8334L39.5235 50.6879Z" fill="#4671C6"/>
</g>
</g>
<g id="Group_19">
<g id="Group_20">
<path id="Vector_9" d="M41.4355 56.7422C40.0533 56.7422 38.9961 56.7422 37.6134 56.7422L35.1919 69.4599H43.857L41.4355 56.7422Z" fill="#4671C6"/>
</g>
</g>
<g id="Group_21">
<g id="Group_22">
<path id="Vector_10" d="M39.525 46.7687C37.6115 46.7687 35.791 46.3776 34.1367 45.6758V47.1216L39.5234 50.6882L44.9117 47.1205L44.9133 47.1214V45.676C43.2593 46.3776 41.4389 46.7687 39.525 46.7687Z" fill="#F9CFCF"/>
</g>
</g>
<g id="Group_23">
<g id="Group_24">
<path id="Vector_11" d="M26.2695 26.2306C27.0546 27.0521 28.3705 27.3262 29.4018 27.4064H48.8149C50.9 27.4064 52.6224 25.8747 52.9313 23.8763C53.1301 24.7964 53.2397 25.7491 53.2397 26.7281V28.0122C54.1663 27.9933 55.0166 28.2719 55.712 28.7513V19.504C55.712 17.8423 54.5343 16.4559 52.9683 16.1335C52.745 13.0071 50.1398 10.5399 46.9564 10.5399H32.6746C27.3424 10.5399 23.02 14.8623 23.02 20.1945V24.1137V28.9938C23.7656 28.3665 24.7373 27.9903 25.811 28.0122L25.714 26.4723C25.6949 26.1712 26.0611 26.0124 26.2695 26.2306Z" fill="#4671C6"/>
</g>
</g>
<g id="Group_25">
<g id="Group_26">
<g id="Group_27">
<path id="Vector_12" d="M56.7314 70H22.3189C22.0208 70 21.7788 69.758 21.7788 69.4599V54.2331C21.7788 51.1243 24.3081 48.595 27.4169 48.595H29.3289C29.4512 48.595 29.57 48.6366 29.6659 48.713L36.0796 53.8304L39.1158 50.3341C39.321 50.0978 39.7263 50.0981 39.9316 50.3341L42.9677 53.8304L49.3814 48.713C49.477 48.6366 49.5959 48.595 49.7185 48.595H51.6337C54.7425 48.595 57.2718 51.1243 57.2718 54.2331V69.4599C57.2715 69.758 57.0298 70 56.7314 70ZM22.859 68.9198H56.1916V54.2331C56.1916 51.7197 54.1467 49.6752 51.6337 49.6752H49.9075L43.2365 54.9979C43.0096 55.1785 42.6815 55.1483 42.4917 54.9298L39.5238 51.5121L36.5557 54.9298C36.3658 55.1483 36.0375 55.1785 35.8109 54.9979L29.1398 49.6752H27.4172C24.9038 49.6752 22.8593 51.72 22.8593 54.2331V68.9198H22.859Z" fill="#3762CC"/>
</g>
</g>
</g>
<g id="Group_28">
<g id="Group_29">
<path id="Vector_13" d="M39.5252 47.3088C33.0191 47.3088 27.4223 43.0263 25.7583 36.8392C24.5728 36.8579 23.4302 36.4169 22.5512 35.6256C21.5652 34.739 21 33.4736 21 32.1541C21 30.8911 21.4991 29.7067 22.4051 28.8187C23.1785 28.0607 24.168 27.6016 25.2371 27.4952L25.175 26.5063C25.152 26.1404 25.3537 25.809 25.6889 25.6621C26.0251 25.5152 26.4061 25.5914 26.6603 25.8576C27.3324 26.5611 28.5295 26.795 29.4231 26.8663H48.8149C50.5905 26.8663 52.1311 25.5419 52.3987 23.7861C52.4379 23.5285 52.6555 23.3356 52.9161 23.3275C53.1776 23.3216 53.4057 23.4987 53.4606 23.7531C53.6726 24.7326 53.7798 25.7334 53.7798 26.728V27.4917C54.8619 27.5919 55.8637 28.0526 56.6455 28.8187C57.5516 29.7067 58.0506 30.8911 58.0506 32.1541C58.0506 33.4736 57.4854 34.7388 56.5 35.6253C55.6207 36.4169 54.4781 36.8592 53.2923 36.8392C51.6283 43.0266 46.0312 47.3088 39.5252 47.3088ZM26.1733 35.7358C26.4213 35.7358 26.6408 35.9062 26.6986 36.1522C28.095 42.0852 33.3696 46.2286 39.5252 46.2286C45.6807 46.2286 50.955 42.0849 52.3517 36.1522C52.4138 35.8878 52.662 35.7093 52.9342 35.739C53.9707 35.8492 55.0085 35.5149 55.7773 34.8228C56.5354 34.1406 56.9701 33.1682 56.9701 32.1544C56.9701 31.1841 56.5864 30.2738 55.8894 29.5905C55.1856 28.9008 54.2515 28.5328 53.2507 28.5522C53.0992 28.5571 52.9653 28.4995 52.8619 28.398C52.7582 28.2965 52.6998 28.1574 52.6998 28.0121V26.728C52.6998 26.4666 52.6917 26.2047 52.6758 25.9427C51.823 27.169 50.4085 27.9465 48.8154 27.9465H29.4018C29.3878 27.9465 29.374 27.9459 29.3599 27.9449C28.4253 27.8722 27.1931 27.6383 26.2857 26.9621L26.3497 27.9781C26.3591 28.1288 26.3051 28.2765 26.2006 28.3856C26.0961 28.4947 25.9535 28.5584 25.7999 28.5519C24.8047 28.5292 23.865 28.9003 23.1612 29.59C22.4639 30.2732 22.0802 31.1838 22.0802 32.1541C22.0802 33.1676 22.515 34.1403 23.2733 34.8228C24.0424 35.5146 25.0791 35.849 26.1161 35.7388C26.1355 35.7369 26.1544 35.7358 26.1733 35.7358Z" fill="#3762CC"/>
</g>
</g>
<g id="Group_30">
<g id="Group_31">
<path id="Vector_14" d="M36.1473 55.1157C36.029 55.1157 35.9102 55.077 35.8105 54.9976L28.9917 49.5572C28.8427 49.4384 28.7673 49.2494 28.7938 49.0606C28.82 48.8718 28.9442 48.7106 29.12 48.6369L33.9264 46.6226C34.0927 46.5529 34.2828 46.571 34.4333 46.6704L39.8216 50.238C39.9512 50.3239 40.0376 50.4613 40.0584 50.6153C40.0795 50.7692 40.033 50.9248 39.9312 51.0425L36.5553 54.9299C36.4489 55.0522 36.2985 55.1157 36.1473 55.1157ZM30.3776 49.281L36.0795 53.8302L38.7122 50.7986L34.0776 47.7303L30.3776 49.281Z" fill="#3762CC"/>
</g>
</g>
<g id="Group_32">
<g id="Group_33">
<path id="Vector_15" d="M42.8992 55.1156C42.7477 55.1156 42.5976 55.0525 42.4912 54.9298L39.1156 51.0425C39.0138 50.925 38.9673 50.7695 38.9884 50.6153C39.0094 50.4613 39.0956 50.3236 39.2252 50.238L44.6135 46.6701C44.7637 46.5704 44.9541 46.5526 45.1204 46.6223L49.9268 48.6366C50.1026 48.7103 50.2268 48.8715 50.253 49.0603C50.2792 49.2493 50.2038 49.4381 50.055 49.5569L43.2363 54.9974C43.1366 55.077 43.0175 55.1156 42.8992 55.1156ZM40.3346 50.7986L42.9673 53.8302L48.6691 49.2809L44.9692 47.7303L40.3346 50.7986Z" fill="#3762CC"/>
</g>
</g>
<g id="Group_34">
<g id="Group_35">
<path id="Vector_16" d="M41.4337 57.2823H37.6136C37.3719 57.2823 37.1594 57.1216 37.0937 56.8888L36.2723 53.9801C36.2228 53.8051 36.265 53.6166 36.3843 53.4791L39.1159 50.3339C39.2185 50.2156 39.3673 50.1481 39.5237 50.1481C39.6803 50.1481 39.8288 50.2159 39.9314 50.3339L42.663 53.4791C42.7824 53.6166 42.8245 53.8051 42.7751 53.9801L41.9536 56.8888C41.8879 57.1216 41.6754 57.2823 41.4337 57.2823ZM38.0222 56.2021H41.0251L41.6562 53.9674L39.5239 51.5118L37.3913 53.9674L38.0222 56.2021Z" fill="#3762CC"/>
</g>
</g>
<g id="Group_36">
<g id="Group_37">
<path id="Vector_17" d="M43.8569 70H35.1915C35.0305 70 34.878 69.9281 34.7754 69.8042C34.6727 69.6802 34.6309 69.5171 34.6609 69.3589L37.0824 56.6411C37.131 56.3865 37.3535 56.202 37.613 56.202H41.4351C41.6943 56.202 41.9171 56.3865 41.9657 56.6411L44.3872 69.3589C44.4172 69.5168 44.3754 69.6802 44.2727 69.8042C44.1701 69.9281 44.0178 70 43.8569 70ZM35.8442 68.9198H43.2039L40.9879 57.2822H38.0602L35.8442 68.9198Z" fill="#3762CC"/>
</g>
</g>
<g id="Group_38">
<g id="Group_39">
<path id="Vector_18" d="M39.5235 51.2283C39.4195 51.2283 39.3155 51.1983 39.2253 51.1384L33.8386 47.5718C33.6874 47.4719 33.5967 47.3026 33.5967 47.1216V45.6758C33.5967 45.4946 33.6874 45.3255 33.8386 45.2256C33.9899 45.1254 34.1808 45.1079 34.3477 45.1786C35.9904 45.8756 37.7322 46.2289 39.5251 46.2289C41.3182 46.2289 43.06 45.8756 44.7025 45.1786C44.8694 45.1079 45.0603 45.1254 45.2115 45.2256C45.3628 45.3255 45.4535 45.4949 45.4535 45.6758V47.1211C45.4535 47.2991 45.3657 47.4654 45.2191 47.5661C45.2053 47.5756 45.1913 47.5842 45.1772 47.5923L39.8213 51.1384C39.7311 51.1983 39.6274 51.2283 39.5235 51.2283ZM34.6769 46.8313L39.5235 50.0403L44.3733 46.8292V46.4673C42.8202 47.026 41.1929 47.3091 39.5251 47.3091C37.8575 47.3091 36.2302 47.0263 34.6769 46.4673V46.8313Z" fill="#3762CC"/>
</g>
</g>
<g id="Group_40">
<g id="Group_41">
<path id="Vector_19" d="M23.0196 29.5341C22.9424 29.5341 22.8646 29.5173 22.7917 29.4836C22.6013 29.395 22.4795 29.2041 22.4795 28.994V20.1947C22.4795 14.5733 27.0528 10 32.6742 10H46.956C50.2536 10 53.0413 12.4761 53.4669 15.7062C55.1024 16.2211 56.2517 17.7588 56.2517 19.5039V28.7515C56.2517 28.9521 56.1404 29.1363 55.9627 29.2297C55.7848 29.3234 55.5701 29.3102 55.4051 29.1962C54.7713 28.7593 54.0286 28.5357 53.2504 28.5522C53.0989 28.557 52.9649 28.4995 52.8615 28.398C52.7581 28.2964 52.6994 28.1574 52.6994 28.0123V26.7283C52.6994 26.4674 52.6911 26.2054 52.6749 25.9429C51.8215 27.169 50.4067 27.9467 48.815 27.9467H29.4017C29.3876 27.9467 29.3736 27.9462 29.3598 27.9451C28.4252 27.8725 27.1929 27.6386 26.2856 26.9624L26.3496 27.9783C26.359 28.129 26.305 28.2767 26.2005 28.3858C26.096 28.4949 25.9534 28.5587 25.7998 28.5522C24.9051 28.5338 24.0444 28.8379 23.3674 29.4072C23.268 29.4906 23.1444 29.5341 23.0196 29.5341ZM32.6744 11.0799C27.6485 11.0799 23.56 15.1688 23.56 20.1944V27.991C24.0812 27.7245 24.6499 27.5562 25.2372 27.496L25.1749 26.5063C25.1519 26.1404 25.3536 25.809 25.6888 25.6621C26.025 25.5152 26.406 25.5913 26.6601 25.8576C27.3323 26.5611 28.5294 26.795 29.423 26.8662H48.8148C50.6155 26.8662 52.1224 25.5741 52.3975 23.7936C52.4372 23.5363 52.6552 23.344 52.9152 23.3364C53.1788 23.3275 53.4043 23.5079 53.4591 23.7623C53.6716 24.7472 53.7796 25.7453 53.7796 26.728V27.4922C54.2617 27.5373 54.7297 27.6553 55.1718 27.8419V19.5039C55.1718 18.1334 54.199 16.9384 52.8593 16.6627C52.6225 16.6138 52.4467 16.4134 52.4294 16.1723C52.2255 13.317 49.8213 11.0805 46.9563 11.0805H32.6744V11.0799Z" fill="#3762CC"/>
</g>
</g>
</g>
</g>
</svg>
