<svg width="80" height="80" viewBox="0 0 80 80" fill="none" xmlns="http://www.w3.org/2000/svg">
<g id="Group 1171277946">
<circle id="Ellipse 21" cx="40" cy="40" r="39" stroke="#A990F5" stroke-width="2"/>
<g id="Group">
<g id="Group_2">
<g id="Group_3">
<path id="Vector" d="M39.8247 13.6321C31.1578 13.6321 23.8978 20.1932 23.0236 28.8159L21.6205 42.6562C21.2602 46.2114 24.0509 49.2993 27.6241 49.2993H51.9558C55.5293 49.2993 58.32 46.2114 57.9594 42.6562L56.5491 28.747C55.6791 20.1635 48.4524 13.6321 39.8247 13.6321Z" fill="#4671C6"/>
</g>
</g>
<g id="Group_4">
<g id="Group_5">
<path id="Vector_2" d="M51.9557 49.8889H27.624C25.7544 49.8889 23.9632 49.0935 22.7096 47.7065C21.4559 46.3193 20.845 44.457 21.0337 42.5966L22.4368 28.7566C23.3449 19.7981 30.8201 13.0426 39.8246 13.0426C48.7894 13.0426 56.2315 19.7686 57.1358 28.6876L58.5461 42.5969C58.7348 44.457 58.1238 46.3193 56.8702 47.7065C55.6165 49.0937 53.8256 49.8889 51.9557 49.8889ZM39.8246 14.2217C31.4278 14.2217 24.4571 20.5213 23.6103 28.8754L22.2071 42.7154C22.0523 44.2445 22.5542 45.7753 23.5847 46.9154C24.6151 48.0556 26.0873 48.7093 27.624 48.7093H51.9557C53.4924 48.7093 54.9649 48.0553 55.9954 46.9151C57.0258 45.775 57.528 44.2442 57.3729 42.7151L55.9626 28.8058C55.1197 20.4918 48.1817 14.2217 39.8246 14.2217Z" fill="#3762CC"/>
</g>
</g>
<g id="Group_6">
<g id="Group_7">
<path id="Vector_3" d="M52.3524 49.2993H45.122V50.9835C45.122 53.9281 42.7349 56.3151 39.7903 56.3151C36.8457 56.3151 34.4586 53.9281 34.4586 50.9835V49.2993H27.2282C24.7633 49.2993 22.7651 51.2975 22.7651 53.7624V69.4103H56.8158V53.7624C56.8155 51.2975 54.8173 49.2993 52.3524 49.2993Z" fill="#F9CFCF"/>
</g>
</g>
<g id="Group_8">
<g id="Group_9">
<path id="Vector_4" d="M39.7899 46.958C37.8964 46.958 36.0952 46.5708 34.4583 45.8765V50.9832C34.4583 53.9278 36.8453 56.3148 39.7899 56.3148C42.7345 56.3148 45.1216 53.9278 45.1216 50.9832V45.8765C43.4849 46.5711 41.6837 46.958 39.7899 46.958Z" fill="#F9CFCF"/>
</g>
</g>
<g id="Group_10">
<g id="Group_11">
<path id="Vector_5" d="M53.1695 56.9322L51.5396 49.299H45.1214V50.9831C45.1214 53.9277 42.7344 56.3148 39.7898 56.3148C36.8452 56.3148 34.4581 53.9277 34.4581 50.9831V49.299H27.9444L26.3145 56.9322C25.4253 61.0965 25.7555 65.4366 27.2639 69.4102H39.6969H39.7868H52.2198C53.7285 65.4366 54.0587 61.0965 53.1695 56.9322Z" fill="#A4C9FF"/>
</g>
</g>
<g id="Group_12">
<g id="Group_13">
<path id="Vector_6" d="M22.7646 53.7624V64.4077H56.8153V53.7624C56.8153 51.2975 54.8171 49.2993 52.3522 49.2993H45.1218V50.9835C45.1218 53.9281 42.7347 56.3151 39.7901 56.3151C36.8455 56.3151 34.4584 53.9281 34.4584 50.9835V49.2993H27.228C24.7628 49.2993 22.7646 51.2975 22.7646 53.7624Z" fill="#A4C9FF"/>
</g>
</g>
<g id="Group_14">
<g id="Group_15">
<path id="Vector_7" d="M56.8154 70H22.7647C22.4392 70 22.175 69.7358 22.175 69.4103V53.7623C22.175 50.9764 24.4418 48.7096 27.2278 48.7096H34.4582C34.7838 48.7096 35.0479 48.9738 35.0479 49.2993V50.9831C35.0479 53.5978 37.1752 55.7251 39.7899 55.7251C42.4046 55.7251 44.5319 53.5978 44.5319 50.9831V49.2993C44.5319 48.9738 44.7961 48.7096 45.1216 48.7096H52.3523C55.1383 48.7096 57.4051 50.9764 57.4051 53.7623V69.4103C57.4051 69.7358 57.1409 70 56.8154 70ZM23.3544 68.8206H56.2257V53.7623C56.2257 51.6265 54.4882 49.889 52.3523 49.889H45.7113V50.9831C45.7113 54.2482 43.055 56.9045 39.7899 56.9045C36.5248 56.9045 33.8686 54.2482 33.8686 50.9831V49.889H27.2278C25.0919 49.889 23.3544 51.6265 23.3544 53.7623V68.8206Z" fill="#3762CC"/>
</g>
</g>
<g id="Group_16">
<g id="Group_17">
<path id="Vector_8" d="M39.79 56.9045C36.5249 56.9045 33.8687 54.2483 33.8687 50.9832V45.8765C33.8687 45.6787 33.9677 45.4941 34.1328 45.385C34.2982 45.2756 34.5067 45.2564 34.6886 45.3337C36.307 46.0204 38.0233 46.3686 39.79 46.3686C41.5567 46.3686 43.273 46.0204 44.8911 45.334C45.0733 45.2567 45.2818 45.2759 45.4469 45.3853C45.612 45.4944 45.7111 45.6792 45.7111 45.8768V50.9835C45.7111 54.2483 43.0548 56.9045 39.79 56.9045ZM35.048 46.738V50.9832C35.048 53.5979 37.1753 55.7252 39.79 55.7252C42.4047 55.7252 44.532 53.5979 44.532 50.9832V46.738C43.0115 47.2755 41.4202 47.5477 39.79 47.5477C38.1598 47.5477 36.5685 47.2758 35.048 46.738Z" fill="#3762CC"/>
</g>
</g>
<g id="Group_18">
<g id="Group_19">
<path id="Vector_9" d="M52.2201 70H27.2642C27.0192 70 26.7998 69.8485 26.7128 69.6197C25.1593 65.5275 24.8223 61.0978 25.7378 56.8093L27.3674 49.1761C27.4255 48.9039 27.6658 48.7094 27.9441 48.7094H34.4578C34.7833 48.7094 35.0475 48.9735 35.0475 49.299V50.9829C35.0475 53.5976 37.1748 55.7249 39.7894 55.7249C42.4041 55.7249 44.5314 53.5976 44.5314 50.9829V49.299C44.5314 48.9735 44.7956 48.7094 45.1211 48.7094H51.5396C51.8179 48.7094 52.0582 48.9039 52.1163 49.1761L53.7459 56.8093C54.6614 61.0975 54.3244 65.5275 52.7708 69.6197C52.6844 69.8485 52.4648 70 52.2201 70ZM27.6752 68.8207H51.809C53.1609 65.0478 53.4327 60.989 52.5927 57.0555L51.0628 49.889H45.7114V50.9832C45.7114 54.2483 43.0551 56.9045 39.79 56.9045C36.5249 56.9045 33.8687 54.2483 33.8687 50.9832V49.889H28.4217L26.8918 57.0555C26.0515 60.989 26.3233 65.0478 27.6752 68.8207Z" fill="#3762CC"/>
</g>
</g>
<g id="Group_20">
<g id="Group_21">
<path id="Vector_10" d="M52.2203 70H27.2644C27.0194 70 26.8 69.8484 26.713 69.6196C26.1502 68.1371 25.7433 66.5845 25.5012 64.9974H22.7645C22.439 64.9974 22.1748 64.7332 22.1748 64.4077V53.7623C22.1748 50.9764 24.4416 48.7096 27.2275 48.7096H34.458C34.7835 48.7096 35.0477 48.9738 35.0477 49.2993V50.9831C35.0477 53.5978 37.175 55.7251 39.7897 55.7251C42.4043 55.7251 44.5316 53.5978 44.5316 50.9831V49.2993C44.5316 48.9738 44.7958 48.7096 45.1213 48.7096H52.3521C55.1381 48.7096 57.4048 50.9764 57.4048 53.7623V64.4077C57.4048 64.7332 57.1406 64.9974 56.8151 64.9974H53.9832C53.7411 66.5845 53.3342 68.1369 52.7713 69.6196C52.6847 69.8484 52.465 70 52.2203 70ZM27.6754 68.8206H51.8093C52.3249 67.3785 52.6867 65.8707 52.886 64.3319C52.9241 64.0379 53.1744 63.818 53.4707 63.818H56.2254V53.7623C56.2254 51.6265 54.4879 49.889 52.3521 49.889H45.711V50.9831C45.711 54.2482 43.0548 56.9045 39.7897 56.9045C36.5246 56.9045 33.8683 54.2482 33.8683 50.9831V49.889H27.2275C25.0917 49.889 23.3542 51.6265 23.3542 53.7623V63.818H26.0137C26.31 63.818 26.5603 64.0379 26.5983 64.3319C26.798 65.8707 27.1597 67.3785 27.6754 68.8206Z" fill="#3762CC"/>
</g>
</g>
<g id="Group_22">
<g id="Group_23">
<path id="Vector_11" d="M53.4312 29.9222C48.3976 29.9222 39.2274 29.9222 37.6196 29.9222C32.8231 29.9222 28.8447 26.4277 28.0861 21.8464C26.902 23.8425 26.2203 26.1665 26.2203 28.6497V29.9201C23.8639 29.8724 21.9946 31.7494 21.9946 34.0185C21.9946 36.4412 24.1098 38.358 26.5789 38.0968C27.9794 44.0464 33.3612 48.4791 39.7905 48.4791C46.2205 48.4791 51.6017 44.0461 53.0022 38.0968C55.468 38.3574 57.5864 36.4447 57.5864 34.0185C57.5858 31.7715 55.7522 29.9137 53.4312 29.9222Z" fill="#F9CFCF"/>
</g>
</g>
<g id="Group_24">
<g id="Group_25">
<path id="Vector_12" d="M39.7901 49.069C33.3416 49.069 27.792 44.8342 26.1256 38.71C24.9592 38.707 23.8273 38.2774 22.9575 37.4949C21.9706 36.6068 21.4045 35.3396 21.4045 34.0184C21.4045 32.7535 21.9043 31.5677 22.8115 30.6784C23.582 29.9233 24.5664 29.4646 25.6305 29.3549V28.649C25.6305 26.1505 26.3043 23.6942 27.5789 21.545C27.7054 21.3319 27.9513 21.2204 28.1948 21.2661C28.4383 21.3118 28.6273 21.5049 28.6677 21.7494C29.3954 26.1428 33.16 29.3319 37.6195 29.3319H53.4293H53.4479C54.7175 29.3319 55.9066 29.8204 56.7985 30.7088C57.6868 31.5939 58.176 32.7689 58.176 34.0178C58.176 35.339 57.6102 36.606 56.6236 37.4937C55.7539 38.2763 54.6214 38.7061 53.455 38.7091C51.7879 44.8339 46.2384 49.069 39.7901 49.069ZM26.5788 37.507C26.8494 37.507 27.0891 37.6931 27.1522 37.9617C28.5283 43.8069 33.7249 47.8893 39.7898 47.8893C45.8548 47.8893 51.0514 43.8069 52.4274 37.9617C52.4955 37.6727 52.7665 37.4775 53.0634 37.5103C54.075 37.6173 55.0846 37.2918 55.8338 36.6175C56.572 35.9532 56.9957 35.0056 56.9957 34.0184C56.9957 33.0855 56.6298 32.2072 55.9653 31.545C55.2927 30.8751 54.3937 30.4983 53.4331 30.5118C53.4325 30.5118 53.4317 30.5118 53.4311 30.5118H37.6192C33.1287 30.5118 29.2612 27.6495 27.8908 23.5122C27.1805 25.1259 26.8096 26.8761 26.8096 28.6493V29.9201C26.8096 30.0787 26.7459 30.2303 26.6327 30.3414C26.5195 30.452 26.3674 30.5121 26.2081 30.5098C25.2384 30.495 24.3226 30.8491 23.6368 31.5211C22.9578 32.1866 22.5839 33.0734 22.5839 34.0187C22.5839 35.0061 23.0076 35.9538 23.7465 36.6184C24.5066 37.3024 25.4914 37.6193 26.5165 37.5105C26.5372 37.5082 26.5581 37.507 26.5788 37.507Z" fill="#3762CC"/>
</g>
</g>
<g id="Group_26">
<g id="Group_27">
<path id="Vector_13" d="M39.7884 42.1055C39.2299 42.1055 38.7428 42.0397 38.2988 41.9047C37.5617 41.6803 36.9154 41.3029 36.4289 40.8126C36.1995 40.5814 36.201 40.2081 36.4321 39.9785C36.6636 39.7494 37.0369 39.7508 37.2663 39.9817C37.6156 40.3337 38.0912 40.6082 38.6423 40.776C38.9734 40.8769 39.3484 40.9258 39.7886 40.9258C40.2288 40.9258 40.6039 40.8769 40.935 40.776C41.4858 40.6085 41.9616 40.3337 42.311 39.9817C42.5407 39.7505 42.914 39.7491 43.1451 39.9785C43.3763 40.2078 43.3778 40.5811 43.1484 40.8126C42.6619 41.3029 42.0153 41.6803 41.2785 41.9047C40.8339 42.04 40.3465 42.1055 39.7884 42.1055Z" fill="#3762CC"/>
</g>
</g>
<g id="Group_28">
<g id="Group_29">
<path id="Vector_14" d="M48.9428 31.4451C48.7255 31.2278 48.3729 31.2278 48.1556 31.4451L47.7693 31.8313C47.5004 31.6562 47.1799 31.5533 46.835 31.5533C45.8876 31.5533 45.1199 32.3214 45.1199 33.2684V35.0979C45.1199 36.0452 45.8876 36.813 46.835 36.813C47.7823 36.813 48.5501 36.0449 48.5501 35.0979V33.2684C48.5501 33.0753 48.5168 32.8904 48.4578 32.717L48.9425 32.2323C49.1604 32.0147 49.1604 31.6624 48.9428 31.4451Z" fill="#3762CC"/>
</g>
</g>
<g id="Group_30">
<g id="Group_31">
<path id="Vector_15" d="M32.7418 31.5529C32.3968 31.5529 32.0763 31.6558 31.8074 31.831L31.4212 31.4447C31.2039 31.2274 30.8512 31.2274 30.6339 31.4447C30.4166 31.662 30.4166 32.0146 30.6339 32.2319L31.1186 32.717C31.0597 32.89 31.0264 33.0752 31.0264 33.2683V35.0978C31.0264 36.0452 31.7941 36.8129 32.7415 36.8129C33.6888 36.8129 34.4566 36.0449 34.4566 35.0978V33.2683C34.4569 32.321 33.6888 31.5529 32.7418 31.5529Z" fill="#3762CC"/>
</g>
</g>
<g id="Group_32">
<g id="Group_33">
<path id="Vector_16" d="M56.4102 25.7171C55.9426 17.2996 48.8616 10.7617 40.4326 10.6167C38.5509 10.5842 39.1925 10.5901 37.6192 10.5901C32.2808 10.5901 27.9534 14.9179 27.9534 20.256C27.9534 25.5942 32.2811 29.9219 37.6192 29.9219H56.5016C56.427 26.0075 56.4329 26.124 56.4102 25.7171Z" fill="#4671C6"/>
</g>
</g>
<g id="Group_34">
<g id="Group_35">
<path id="Vector_17" d="M56.5017 30.5119H37.6193C31.9642 30.5119 27.3638 25.9111 27.3638 20.2563C27.3638 14.6015 31.9645 10.0005 37.6193 10.0005L38.2279 10.0002C38.8975 9.99957 38.8972 9.99987 39.7092 10.014L40.4427 10.027C49.2471 10.1785 56.5194 17.0558 56.9988 25.6841L56.41 25.7168L56.9991 25.6891C57.0177 26.0211 57.0177 26.0211 57.0551 28.0181L57.0908 29.9107C57.0938 30.069 57.033 30.222 56.9222 30.3349C56.8116 30.4482 56.66 30.5119 56.5017 30.5119ZM38.5024 11.1795C38.4242 11.1795 38.3352 11.1795 38.2291 11.1795L37.6193 11.1798C32.6146 11.1798 28.5431 15.2513 28.5431 20.256C28.5431 25.2607 32.6146 29.3325 37.6193 29.3325H55.9005L55.8761 28.0405C55.8389 26.065 55.8389 26.065 55.8215 25.7546L56.41 25.7168L55.8212 25.7498C55.376 17.7357 48.612 11.3476 40.4224 11.2064L39.6882 11.1937C39.0172 11.1813 38.909 11.1795 38.5024 11.1795Z" fill="#3762CC"/>
</g>
</g>
</g>
</g>
</svg>
